<svg xmlns="http://www.w3.org/2000/svg" viewBox="0 0 500 415"><g fill="none" stroke-width="2"><path stroke="#8ec1db" d="m241.83 39.08 58.98 33.87q.42.25.42.74l.05 20.61q0 .73-.63.37l-78.28-44.91M308.69 68.28l21.06 36.26" vector-effect="non-scaling-stroke"/><path stroke="#6a9db7" d="M329.75 104.54q6.1-8.36 10.88-17.62" vector-effect="non-scaling-stroke"/><path stroke="#3753a0" d="M483.76 169.87 248.08 305.46" vector-effect="non-scaling-stroke"/><path stroke="#5775ba" d="M248.08 305.46q-116.1-67.47-232.27-134.77-.53-.31-.3-1.38" vector-effect="non-scaling-stroke"/><path stroke="#61536d" d="m113.27 112.93 13.84 23.99q.29.51.58.01l22.81-39.25q.31-.54-.06-1.03l-2.68-3.57" vector-effect="non-scaling-stroke"/><path stroke="#8ec1db" d="M195.44 65.62q.11 35.33.05 70.34c0 .9-.84 2.09.45 2.84q34.28 19.89 69.1 39.61" vector-effect="non-scaling-stroke"/><path stroke="#96cae4" d="M265.04 178.41c-.47.8-1.99 2.5-2.03 3.41q-.04.98.57.96" vector-effect="non-scaling-stroke"/><path stroke="#8ec1db" d="m263.58 182.78 22.32 39.26" vector-effect="non-scaling-stroke"/><path stroke="#6a9db7" d="m285.9 222.04 13.56-23.29" vector-effect="non-scaling-stroke"/><path stroke="#8ec1db" d="M299.46 198.75q1.04.62 1.69-.02.37-.36.3-.86l-.24-1.87" vector-effect="non-scaling-stroke"/><path stroke="#6a9db7" d="m301.21 196 7.96-14.22" vector-effect="non-scaling-stroke"/><path stroke="#7cb0ca" d="M309.17 181.78q-3.46-5.21-7.74-10.64c-.21-.26-.21-.59-.16-.89" vector-effect="non-scaling-stroke"/><path stroke="#8ec1db" d="m301.27 170.25.02-73.14q0-.5-.43-.75l-79.48-45.62" vector-effect="non-scaling-stroke"/><path stroke="#4e2280" d="m248.08 305.46-.07 7.8a2.06 1.98-32 0 1-.24.95l-.58 1.09" vector-effect="non-scaling-stroke"/><path stroke="#ad98c4" d="M247.19 315.3 88.51 223.18" vector-effect="non-scaling-stroke"/><path stroke="#937eaa" d="m88.51 223.18-4.22-2.43" vector-effect="non-scaling-stroke"/><path stroke="#846da0" stroke-opacity=".875" d="m84.29 220.75-6.08-3.34" vector-effect="non-scaling-stroke"/><path stroke="#624087" stroke-opacity=".62" d="m78.21 217.41-3.8-2.42" vector-effect="non-scaling-stroke"/><path stroke="#4a2f70" stroke-opacity=".784" d="m425.01 214.04-8.8 5.05" vector-effect="non-scaling-stroke"/><path stroke="#6a538b" stroke-opacity=".918" d="m416.21 219.09-2.57 1.65" vector-effect="non-scaling-stroke"/><path stroke="#826da2" d="m413.64 220.74-2.44 1.38" vector-effect="non-scaling-stroke"/><path stroke="#8d77aa" d="M411.2 222.12q-81.13 46.49-162.07 93.31c-.8.46-1.19.26-1.94-.13" vector-effect="non-scaling-stroke"/><path stroke="#b8b8b8" d="m301.21 196-1.75 2.75M285.9 222.04l.14-27.04" vector-effect="non-scaling-stroke"/><path stroke="#a6a7a7" d="M309.17 181.78 286.04 195" vector-effect="non-scaling-stroke"/><path stroke="#cacbcb" d="M286.04 195q.03-.54-.21-.75" vector-effect="non-scaling-stroke"/><path stroke="#d2d3d3" d="m285.83 194.25-.02-43.96" vector-effect="non-scaling-stroke"/><path stroke="#b8b8b8" d="m330.09 78.2-.34 26.34" vector-effect="non-scaling-stroke"/><path stroke="#cacbcb" d="M301.27 170.25q-.46.05-.72-.3-6.95-9.69-14.74-19.66" vector-effect="non-scaling-stroke"/><path stroke="#e4e5e5" d="m285.81 150.29-20.77 28.12M285.83 194.25q-.54.8-1.35.24-8.5-5.71-20.9-11.71" vector-effect="non-scaling-stroke"/><path stroke="#d2d3d3" d="M88.51 223.18q-.81-.07.03 1.55" vector-effect="non-scaling-stroke"/><path stroke="#c7cacc" d="m88.54 224.73-8.11 6.11a.79.77-63.1 0 1-.47.16h-.42q-.42 0-.67.35c-1.7 2.37-4.24 2.38-6.14 3.49q-10.31 6.02-20.68 11.93c-1.68.96-2.94 2.79-5.28 3.31q-.47.1-.85.39c-2.25 1.71-4.75 2.43-6.71 4.44q-3.1 3.18-6.59 5.94-.38.3-.48.77-.31 1.52-1.18 2.76-.31.43-.31.96c0 2.32.63 7.2 3.24 8q.35.1.35.46c0 .38 1.86 1.21 2.15 2.62a.7.68.1 0 0 .55.54q.93.18 1.2 1.03a.86.85 83.8 0 0 .74.6q1.27.12 1.93 1.32a1.71 1.69-89.5 0 0 .6.62l18.13 10.7a.93.93 0 0 1 .46.8v.45q0 .46.41.67l23.08 11.51q.43.21.63.64.96 2.02 3.28 1.7.53-.07.84.37.98 1.39 2.61 1.95.42.14.66.52c.98 1.52 3.31 1.5 4.86 3.15q.28.31.7.37 1.08.16 1.46 1.24.15.43.6.41 2.87-.13 4.55 2.14a.92.92 0 0 0 .93.36q.8-.17 1.11.5.24.52.79.68 3.42 1.01 6.41 2.9c4.77 3.02 8.14 4.9 12.45 7.18q.47.25.59.77.34 1.4 1.81 1.42a1.88 1.86 61.5 0 1 1.03.31q8.89 5.84 11.76 7.17 1.75.8 2.74 2.03.35.44.91.48 2.29.2 3.8 2.01.34.41.86.29c.42-.11 6.64 3.98 7.58 4.51 2.64 1.46 5.81 1.43 8.38 4.32q.33.36.79.52 3.89 1.29 7.36 3.52c.7.45.72 1.12 1.5 1.52q3.27 1.67 6.45 3.45c1.15.64 1.95 2 3.77 2.11q.48.03.88.31 2.08 1.41 4.1 2.92c1.11.83 2.29.83 3.39 1.97q.41.43.97.63l3.44 1.27q.52.19.66.73c.29 1.12 5.83 3.49 7.06 3.99a2.03 1.99 81.6 0 1 .82.62q1.3 1.66 3.42 1.62.47-.01.68.42c1.09 2.26 6.78 4.47 8.82 4.84q.49.09.83.46c2.05 2.23 4.82 2.97 7.14 4.59q1.75 1.23 3.73 1.97.45.17.79.51c1.16 1.18 2.97 1.37 4.12 1.95q12.41 6.35 26.23 2.36" vector-effect="non-scaling-stroke"/><path stroke="#cacbcb" d="M261.78 394.36q1.86.03 3.5-1.61a1.54 1.51 18.2 0 1 .87-.43q1.08-.13 1.77-.88" vector-effect="non-scaling-stroke"/><path stroke="#c7cacc" d="M267.92 391.44q1.39-1.24 3.16-1.53.47-.08.76-.46.98-1.3 2.61-1.45" vector-effect="non-scaling-stroke"/><path stroke="#cacbcb" d="M274.45 388q3.09-1.03 4.84-3.02M279.29 384.98q2.4.15 3.7-2.04" vector-effect="non-scaling-stroke"/><path stroke="#c7cacc" d="M282.99 382.94q.26-.56 1.19-.99" vector-effect="non-scaling-stroke"/><path stroke="#cacbcb" d="M284.18 381.95q2.47-.08 3.82-1.95" vector-effect="non-scaling-stroke"/><path stroke="#c7cacc" d="m288 380 3.78-2.48" vector-effect="non-scaling-stroke"/><path stroke="#cacbcb" d="M291.78 377.52q1.14-.04 2.24-.56a2.18 2.08-82.2 0 0 .75-.6q.59-.75 1.42-.86.43-.05.77-.3l2.03-1.49" vector-effect="non-scaling-stroke"/><path stroke="#c7cacc" d="m298.99 373.71 6.26-3.75" vector-effect="non-scaling-stroke"/><path stroke="#cacbcb" d="M305.25 369.96q3.35-.65 5.31-3.2" vector-effect="non-scaling-stroke"/><path stroke="#c7cacc" d="M310.56 366.76q.9-.13 1.33-.89" vector-effect="non-scaling-stroke"/><path stroke="#cacbcb" d="m311.89 365.87 1.47-.2a2.1 2.03 22.2 0 0 .97-.39q1.81-1.36 3.87-2.31.5-.23.88-.62 1.45-1.5 3.57-1.93.46-.09.76-.46l1.06-1.31" vector-effect="non-scaling-stroke"/><path stroke="#c7cacc" d="M324.47 358.65q.93.02 1.92-1.03" vector-effect="non-scaling-stroke"/><path stroke="#cacbcb" d="M326.39 357.62q2.51-.31 3.09-1.85M329.48 355.77q4.52-1.3 7.56-4.21" vector-effect="non-scaling-stroke"/><path stroke="#c7cacc" d="m337.04 351.56 9.26-5.7" vector-effect="non-scaling-stroke"/><path stroke="#cacbcb" d="M346.3 345.86q2.58-.53 4.49-2.37M350.79 343.49q1.88-.02 2.92-1.51.29-.42.8-.45 1.61-.11 2.54-1.26" vector-effect="non-scaling-stroke"/><path stroke="#c7cacc" d="M357.05 340.27q-.22-.01.13-.35" vector-effect="non-scaling-stroke"/><path stroke="#cacbcb" d="M357.18 339.92q2.24-.77 2.92-1.82" vector-effect="non-scaling-stroke"/><path stroke="#c7cacc" d="M360.1 338.1q.5-.95.84-.81" vector-effect="non-scaling-stroke"/><path stroke="#cacbcb" d="M360.94 337.29q1.4-.22 2.31-1.12.31-.31.69-.52l3.16-1.66" vector-effect="non-scaling-stroke"/><path stroke="#c7cacc" d="M367.1 333.99q1.27-1.6 3.06-2.09" vector-effect="non-scaling-stroke"/><path stroke="#cacbcb" d="M370.16 331.9q3.88-1.16 7.17-3.93" vector-effect="non-scaling-stroke"/><path stroke="#c7cacc" d="m377.33 327.97 6.64-3.75" vector-effect="non-scaling-stroke"/><path stroke="#cacbcb" d="m383.97 324.22 11.06-5.86" vector-effect="non-scaling-stroke"/><path stroke="#c7cacc" d="M395.03 318.36q.52-1.03 1.84-1.53" vector-effect="non-scaling-stroke"/><path stroke="#cacbcb" d="M396.87 316.83q-.05.5-.33.84-.4.48.21.35.53-.1.76-.63.22-.51.72-.26.87.46 1.12-.35.14-.45.55-.68 9.04-5.09 17.89-10.55c2.25-1.38 4.84-2.29 7.25-3.65q.4-.23.49-.68.23-1.12 1.33-.98a.96.95-66.1 0 0 .86-.34q1.82-2.18 4.54-2.66.51-.1.89-.46l2.6-2.49" vector-effect="non-scaling-stroke"/><path stroke="#c7cacc" d="M435.75 294.29q.91-1.12 2.09-1.21" vector-effect="non-scaling-stroke"/><path stroke="#cacbcb" d="M437.84 293.08q-.22.09-.27.21-.14.34.26.11c1.54-.87 2.5-1.66 4.38-2.13.75-.18 3.51-1.12 3.57-2.07q.03-.48.49-.64 1.89-.61 3.37-1.93.38-.34.88-.39 2.25-.23 3.51-2.21M454.03 284.03c2.53-.78 4.75-2.4 6.39-3.37q.35-.21.56-.56.53-.91 1.54-1.18.39-.11.47-.5c.26-1.37 2.54-.78 2.79-2.83" vector-effect="non-scaling-stroke"/><path stroke="#c7cacc" d="M465.78 275.59c4.23-5.05 6.12-8.38 3.28-14.56q-.04-.09-.11-.02l-.25.25q-.14.14-.19-.05-.44-1.75-1.97-2.75-.49-.32-.68-.88-.94-2.74-3.66-3.68-.48-.17-.76-.6c-1.64-2.58-8.21-3.78-11.19-5.38-1.31-.71-1.93-1.98-3.35-2.61-2.82-1.27-5.19-2.63-8.14-3.13a.35.34 8.9 0 1-.28-.38l.04-.39a.48.48 0 0 0-.52-.52q-2.18.2-3.22-1.46-.26-.41-.71-.58-2.76-1.04-4.48-3.42-.31-.43-.85-.43h-.72q-.58 0-.71-.57-.19-.76-.88-.72-.56.04-1.04-.26l-2.15-1.32q-.43-.27-.92-.41c-2.32-.66-4.02-2.39-5.96-3.45q-1.13-.61-2.76-1.64-1.85-1.17-1.71-3.5" vector-effect="non-scaling-stroke"/><path stroke="#afb1b2" stroke-opacity=".875" d="m84.29 220.75.33.77q.22.51-.16.91-.54.56-.89.67" vector-effect="non-scaling-stroke"/><path stroke="#d9dbdd" d="M465.78 275.59q-5.08 3.85-8.78 5.91-2.02 1.13-2.97 2.53M454.03 284.03q-8.81 3.46-16.19 9.05M435.75 294.29c-2.68 1.54-5.39 2-7.78 4.04-3.1 2.64-7.19 4.15-10.51 6.35-6.68 4.42-13.9 7.66-20.59 12.15M395.03 318.36q-3.95.62-6.65 3.24-.35.33-.82.43-2.17.44-3.59 2.19M377.33 327.97q-4.07 1.46-7.17 3.93M367.1 333.99q-3.39.46-6.16 3.3M360.1 338.1q-1.88.01-2.92 1.82M357.05 340.27q-3.9.52-6.26 3.22M350.79 343.49q-2.96.57-4.49 2.37M337.04 351.56q-4.07 1.1-7.56 4.21M329.48 355.77l-3.09 1.85M324.47 358.65l-12.58 7.22M310.56 366.76q-3.15.93-5.31 3.2M298.99 373.71l-7.21 3.81M288 380l-3.82 1.95M282.99 382.94l-3.7 2.04M279.29 384.98q-2.61.77-4.84 3.02M267.92 391.44q-3.28.82-6.14 2.92" vector-effect="non-scaling-stroke"/><path stroke="#e1e4e6" d="M88.54 224.73q74.42 43.33 149.12 86.4c2.9 1.67 6.63 4.2 10.29 5.76q.53.22 1.03-.06 81.25-46.75 162.49-93.51.49-.28.19-.76-.15-.24-.46-.44" vector-effect="non-scaling-stroke"/><path stroke="#b5b8b9" stroke-opacity=".918" d="M83.57 223.1q-2.06 1.11-2.29 2.04a1.16 1.13-9.7 0 1-.51.7q-1.37.85-3.78 1.88c-4.36 1.85-8.63 5.1-12.67 7.27q-4.05 2.17-8.58 5-6.76 4.21-17.25 10.05-2.34 1.31-3.98 3.46-.67.89.28.33l.91-.54a.16.15-78.9 0 1 .17.26q-1.49 1.19-3.13 2.15-.37.21-.14-.15.19-.3.42-.56a.28.22-6.1 0 0-.43-.26c-3.21 2.54-6.4 5.52-7.13 9.68-1.87 10.74 8.3 16.13 16.24 20.81 5.53 3.26 11.61 7.54 17.83 10.66q.36.18.44.58.08.33.5.29 4.63 2.46 9.1 5.18.82-.03.96.69.09.46.54.62c3.4 1.17 6.52 3.41 8.93 4.76q13.28 7.47 26.58 14.91.3.16.48.47.25.42.7.59c4.04 1.54 7.85 4.37 11.57 6.35 4.52 2.4 8.39 5.26 13.19 7.26q1.46.6 2.92 1.56c2.35 1.53 5.06 2.74 7.15 4.2 4.51 3.15 8.98 6.37 14.07 8.49 2.29.96 3.54 2.79 6.25 3.54a1.54 1.53 77.9 0 1 .78.51q.76.93 2.31 1.63 4.71 2.15 10.37 6.13.41.29.91.32 1.18.07 1.74 1.04.19.33.55.46c2.39.82 4.67 2.65 6.38 3.55q11.21 5.95 22 12.66 1.27.8 4.27 2.39c2.69 1.44 4.73 3.25 7.58 4.36 3.09 1.21 5.02 3.62 8.15 4.02a1.97 1.86 65.1 0 1 .9.36q6.09 4.49 14.23 6.84c16.56 4.78 27.24-5.05 40.48-12.1 1.47-.78 2.53-2.21 4.19-2.94 3.47-1.52 6.39-3.93 9.7-5.42q.81-.37 1.26-.86a2.56 2.48-80.4 0 1 .79-.58c8.15-3.74 15.56-8.33 23.33-12.72 3.16-1.78 5.28-3.98 8.9-5.92 5.33-2.87 11.27-5.02 15.56-8.57 2.17-1.78 4.11-2.49 5.74-3.59q8.01-5.39 11.71-6.71 2.82-1.01 4.2-2.64a1.78 1.74-79.3 0 1 .76-.53c3.33-1.22 6.25-3.71 8.76-5.06 5.28-2.86 10.29-6.25 15.73-8.77q2.4-1.12 4.64-2.53c6.96-4.42 14.1-8.5 21.24-12.63q.24-.14.95-.05a1.17 1.16-62 0 0 .9-.28c1.89-1.64 4.09-2.33 5.89-3.95q4.84-4.33 10.63-7.35 7.04-3.66 13.57-8.18.39-.27 1.45-.47.49-.1.89-.4 2.03-1.55 8.41-5.4 3.32-2.01 8.04-6.81c4.42-4.5 4.71-10.22 1.43-15.44-3.66-5.81-9.68-8.36-15.19-11.81-1.87-1.18-4.03-1.29-6-2.67q-.41-.28-.89-.35c-2.79-.4-4.92-2.35-6.82-3.29q-1.72-.84-3.38-1.83-13.93-8.31-28.06-16.66" vector-effect="non-scaling-stroke"/><path stroke="#c5cacd" stroke-opacity=".918" d="m411.89 223.13 1.75-2.39" vector-effect="non-scaling-stroke"/><path stroke="#a6a7a7" d="M352.94 65.56 330.09 78.2" vector-effect="non-scaling-stroke"/><path stroke="#cacbcb" d="M330.09 78.2q.44-1.31-.16-1.21" vector-effect="non-scaling-stroke"/><path stroke="#d2d3d3" d="m331.25 34.96-.51.33q-.43.27-.43.78l-.38 40.92" vector-effect="non-scaling-stroke"/><path stroke="#e4e5e5" d="m329.93 76.99.09.49a.39.39 0 0 1-.58.41L309.9 66.55q-.46-.26-.99-.24-.61.02-1.21-.3" vector-effect="non-scaling-stroke"/><path stroke="#a70000" d="M128.35 67.12c-.56.19-.93.59-.94 1.23q-.27 20.92-.13 41.63a.54.54 0 0 1-.85.45q-10-6.91-21.44-12.22" vector-effect="non-scaling-stroke"/><path stroke="#e4e5e5" d="M207.6 28.81c-3.47-11.06-14.69-1.29-3.17 5.13q.48.27.91-.07l1.22-.97a.8.79 56.2 0 1 1.2.24c1.27 2.3 3.66 7.82 7.16 4.42q.43-.41.82.05c.58.7.6 1.64 1.1 2.33q1.45 2 3.61 3.13.42.21.87.09c6.34-1.74 1.7-8.61-2.34-10q-.47-.17-.92.05l-1.29.6q-.38.18-.57-.19-1.64-3.11-4.53-5.04-.41-.27-.9-.32-1.01-.1-1.34.65a.98.98 0 0 1-1.83-.1" vector-effect="non-scaling-stroke"/><path stroke="#dc7777" d="M205.708 32.313a4.08 2.39 59.7 0 0 .006-4.729 4.08 2.39 59.7 0 0-4.123-2.317 4.08 2.39 59.7 0 0-.005 4.729 4.08 2.39 59.7 0 0 4.122 2.317M213.927 36.982a4.08 2.41 59.4 0 0-.003-4.739 4.08 2.41 59.4 0 0-4.15-2.285 4.08 2.41 59.4 0 0 .002 4.739 4.08 2.41 59.4 0 0 4.15 2.285M222.234 41.692a4.11 2.42 57.9 0 0-.134-4.768 4.11 2.42 57.9 0 0-4.234-2.196 4.11 2.42 57.9 0 0 .134 4.768 4.11 2.42 57.9 0 0 4.234 2.196" vector-effect="non-scaling-stroke"/><path stroke="#8ec1db" d="m347.4 136.7 22.72 39.66" vector-effect="non-scaling-stroke"/><path stroke="#6a9db7" d="m370.12 176.36 23.02-39.86" vector-effect="non-scaling-stroke"/><path stroke="#7cb0ca" d="M393.14 136.5q-.2-1.37-.44-1.7-11.05-14.78-22.42-30.01" vector-effect="non-scaling-stroke"/><path stroke="#96cae4" d="m370.28 104.79-23.07 30.99q-.25.33-.06.7.75 1.46.25.22" vector-effect="non-scaling-stroke"/><path stroke="#d2d3d3" d="m370.28 104.79-.01 44.66" vector-effect="non-scaling-stroke"/><path stroke="#c0c1c1" d="M370.27 149.45q.06.52-.19.56" vector-effect="non-scaling-stroke"/><path stroke="#e4e5e5" d="M370.08 150.01q-.65.18-1.09-.71-.22-.44-.65-.69L347.4 136.7" vector-effect="non-scaling-stroke"/><path stroke="#a6a7a7" d="m393.14 136.5-22.87 12.95" vector-effect="non-scaling-stroke"/><path stroke="#b8b8b8" d="m370.12 176.36-.04-26.35" vector-effect="non-scaling-stroke"/><path stroke="#2197d4" d="M331.09 114.59a1.69 1.69 0 0 0-1.78.01l-4.46 2.79a1.69 1.69 0 0 0 .01 2.87l4.46 2.76a1.69 1.69 0 0 0 1.75.02l4.61-2.73a1.69 1.69 0 0 0 .03-2.9l-4.62-2.82" vector-effect="non-scaling-stroke"/><path stroke="#8ec1db" d="m146.08 172.98 22.5 39.06" vector-effect="non-scaling-stroke"/><path stroke="#6a9db7" d="m168.58 212.04 23.3-40.17" vector-effect="non-scaling-stroke"/><path stroke="#7cb0ca" d="m191.88 171.87-23.1-31.23" vector-effect="non-scaling-stroke"/><path stroke="#96cae4" d="M168.78 140.64q-12.32 15.54-23.06 31.28-.28.41.07.77l.29.29" vector-effect="non-scaling-stroke"/><path stroke="#d2d3d3" d="M168.78 140.64q.27 1.07-.05 1.7-.23.45-.23.96v42.04" vector-effect="non-scaling-stroke"/><path stroke="#c0c1c1" d="m168.5 185.34-.05 16.65" vector-effect="non-scaling-stroke"/><path stroke="#e4e5e5" d="m168.45 201.99-.33 4.5q-.01.14-.14.18-.16.06-.33.11-.5.16-.5-.37.07-10.63.16-21.27 0-.54-.47-.82l-19.16-11.09q-.17-.1-.36-.12l-1.24-.13" vector-effect="non-scaling-stroke"/><path stroke="#a6a7a7" d="m191.88 171.87-23.38 13.47" vector-effect="non-scaling-stroke"/><path stroke="#b8b8b8" d="m168.58 212.04-.13-10.05" vector-effect="non-scaling-stroke"/><path stroke="#2197d4" d="M132.82 152.34a1.74 1.74 0 0 0-.01-2.98l-4.48-2.66a1.74 1.74 0 0 0-1.78 0l-4.43 2.63a1.74 1.74 0 0 0-.06 2.96l4.33 2.81a1.74 1.74 0 0 0 1.86.03l4.57-2.79M369.12 193.79a1.75 1.75 0 0 0 1.79.02l4.65-2.66a1.75 1.75 0 0 0 0-3.04l-4.58-2.63a1.75 1.75 0 0 0-1.76.01l-4.44 2.61a1.75 1.75 0 0 0-.03 3l4.37 2.69M174.33 224.4l-4.96-3.16a.98.97 46.3 0 0-1.01-.03l-4.73 2.62a2.04 2.04 0 0 0-.04 3.55l4.13 2.41a1.26 1.23 49.2 0 0 1.05.09q3.08-1.15 5.66-3.14a1.43 1.43 0 0 0-.1-2.34M279.97 234.98a1.23 1.22 42.9 0 0 .07 1.74q2.49 2.28 5.67 3.31a1.12 1.08-50.3 0 0 .89-.1l4.83-2.83a1.66 1.66 0 0 0 .01-2.86l-4.55-2.72q-.49-.29-1.04-.14-3.46 1.01-5.88 3.6" vector-effect="non-scaling-stroke"/><path stroke="#b5b8b9" stroke-opacity=".918" d="M440.28 238.53c-1.37-1.33-3.78-3.05-5.55-3.68q-.49-.17-.67-.66-.5-1.36-1.87-1.4a2 1.99-28.7 0 1-1-.29l-10.64-6.31q-.96-.57-.23.27 1.29 1.51 2.37 2.12 6.74 3.82 13.45 7.65c1.25.72 2.18 2.21 4.02 2.54q.43.07.12-.24M451.98 244.91q-1.66-1.15-3.58-1.82-1.04-.36-.16.3 1.55 1.13 3.62 1.75.79.24.12-.23M461.55 283.46q1.99-.46 3.37-1.88a1 .99-65.5 0 1 .77-.29q.86.07 1.31-.71.38-.67-.32-.34-2.56 1.23-5.19 3.09-.29.21.06.13" vector-effect="non-scaling-stroke"/></g><path fill="#dcdcdc" d="m241.83 39.08 58.98 33.87q.42.25.42.74l.05 20.61q0 .73-.63.37l-78.28-44.91-26.46-15.17a.87.86-75 0 1-.43-.75V13.21q0-.72.62-.36l45.73 26.23ZM207.6 28.81c-3.47-11.06-14.69-1.29-3.17 5.13q.48.27.91-.07l1.22-.97a.8.79 56.2 0 1 1.2.24c1.27 2.3 3.66 7.82 7.16 4.42q.43-.41.82.05c.58.7.6 1.64 1.1 2.33q1.45 2 3.61 3.13.42.21.87.09c6.34-1.74 1.7-8.61-2.34-10q-.47-.17-.92.05l-1.29.6q-.38.18-.57-.19-1.64-3.11-4.53-5.04-.41-.27-.9-.32-1.01-.1-1.34.65a.98.98 0 0 1-1.83-.1Z"/><path fill="#eceded" d="M204.43 33.94c-11.52-6.42-.3-16.19 3.17-5.13a.98.98 0 0 0 1.83.1q.33-.75 1.34-.65.49.05.9.32 2.89 1.93 4.53 5.04.19.37.57.19l1.29-.6q.45-.22.92-.05c4.04 1.39 8.68 8.26 2.34 10q-.45.12-.87-.09-2.16-1.13-3.61-3.13c-.5-.69-.52-1.63-1.1-2.33q-.39-.46-.82-.05c-3.5 3.4-5.89-2.12-7.16-4.42a.8.79 56.2 0 0-1.2-.24l-1.22.97q-.43.34-.91.07Zm1.278-1.627a4.08 2.39 59.7 0 0 .006-4.729 4.08 2.39 59.7 0 0-4.123-2.317 4.08 2.39 59.7 0 0-.005 4.729 4.08 2.39 59.7 0 0 4.122 2.317Zm8.219 4.669a4.08 2.41 59.4 0 0-.003-4.739 4.08 2.41 59.4 0 0-4.15-2.285 4.08 2.41 59.4 0 0 .002 4.739 4.08 2.41 59.4 0 0 4.15 2.285Zm8.307 4.71a4.11 2.42 57.9 0 0-.134-4.768 4.11 2.42 57.9 0 0-4.234-2.196 4.11 2.42 57.9 0 0 .134 4.768 4.11 2.42 57.9 0 0 4.234 2.196Z"/><ellipse fill="#c00" rx="4.08" ry="2.39" transform="rotate(59.7 76.74 191.832)"/><ellipse fill="#c00" rx="4.08" ry="2.41" transform="rotate(59.4 76.585 202.441)"/><path fill="#eceded" d="m331.25 34.96-.51.33q-.43.27-.43.78l-.38 40.92.09.49a.39.39 0 0 1-.58.41L309.9 66.55q-.46-.26-.99-.24-.61.02-1.21-.3c-.85-.46-.93-1.15-.35-1.92q11.3-15.02 22.45-30.17.3-.4.67-.07.52.45.78 1.11Z"/><path fill="#40a6da" d="m308.69 68.28 21.06 36.26q6.1-8.36 10.88-17.62l143.13 82.95-235.68 135.59q-116.1-67.47-232.27-134.77-.53-.31-.3-1.38l97.76-56.38 13.84 23.99q.29.51.58.01l22.81-39.25q.31-.54-.06-1.03l-2.68-3.57 47.68-27.46q.11 35.33.05 70.34c0 .9-.84 2.09.45 2.84q34.28 19.89 69.1 39.61c-.47.8-1.99 2.5-2.03 3.41q-.04.98.57.96l22.32 39.26 13.56-23.29q1.04.62 1.69-.02.37-.36.3-.86l-.24-1.87 7.96-14.22q-3.46-5.21-7.74-10.64c-.21-.26-.21-.59-.16-.89l.02-73.14q0-.5-.43-.75l-79.48-45.62.99-.98 78.28 44.91q.63.36.63-.37l-.05-20.61q0-.49-.42-.74l-58.98-33.87q3.76-2.83 7.68-4.57.45-.2.87.05l58.31 33.72Zm38.71 68.42 22.72 39.66 23.02-39.86q-.2-1.37-.44-1.7-11.05-14.78-22.42-30.01l-23.07 30.99q-.25.33-.06.7.75 1.46.25.22Zm-16.31-22.11a1.69 1.69 0 0 0-1.78.01l-4.46 2.79a1.69 1.69 0 0 0 .01 2.87l4.46 2.76a1.69 1.69 0 0 0 1.75.02l4.61-2.73a1.69 1.69 0 0 0 .03-2.9l-4.62-2.82Zm-185.01 58.39 22.5 39.06 23.3-40.17-23.1-31.23q-12.32 15.54-23.06 31.28-.28.41.07.77l.29.29Zm-13.26-20.64a1.74 1.74 0 0 0-.01-2.98l-4.48-2.66a1.74 1.74 0 0 0-1.78 0l-4.43 2.63a1.74 1.74 0 0 0-.06 2.96l4.33 2.81a1.74 1.74 0 0 0 1.86.03l4.57-2.79Zm236.3 41.45a1.75 1.75 0 0 0 1.79.02l4.65-2.66a1.75 1.75 0 0 0 0-3.04l-4.58-2.63a1.75 1.75 0 0 0-1.76.01l-4.44 2.61a1.75 1.75 0 0 0-.03 3l4.37 2.69ZM174.33 224.4l-4.96-3.16a.98.97 46.3 0 0-1.01-.03l-4.73 2.62a2.04 2.04 0 0 0-.04 3.55l4.13 2.41a1.26 1.23 49.2 0 0 1.05.09q3.08-1.15 5.66-3.14a1.43 1.43 0 0 0-.1-2.34Zm105.64 10.58a1.23 1.22 42.9 0 0 .07 1.74q2.49 2.28 5.67 3.31a1.12 1.08-50.3 0 0 .89-.1l4.83-2.83a1.66 1.66 0 0 0 .01-2.86l-4.55-2.72q-.49-.29-1.04-.14-3.46 1.01-5.88 3.6Z"/><ellipse fill="#c00" rx="4.11" ry="2.42" transform="rotate(57.9 75.488 218.005)"/><path fill="#b8b9b9" d="M331.25 34.96q10.79 14.14 21.35 28.45 1.56 2.11.34 2.15L330.09 78.2q.44-1.31-.16-1.21l.38-40.92q0-.51.43-.78l.51-.33Z"/><path fill="#dcdcdc" d="m221.38 50.74 79.48 45.62q.43.25.43.75l-.02 73.14q-.46.05-.72-.3-6.95-9.69-14.74-19.66l-20.77 28.12q-34.82-19.72-69.1-39.61c-1.29-.75-.45-1.94-.45-2.84q.06-35.01-.05-70.34l-.01-28.96a.5.49-75 0 1 .74-.43l25.21 14.51Z"/><path fill="#c00" d="M128.35 67.12c-.56.19-.93.59-.94 1.23q-.27 20.92-.13 41.63a.54.54 0 0 1-.85.45q-10-6.91-21.44-12.22c-1.13 0-.72-1.39-.26-1.99Q115.91 81.35 127 66.43q.3-.41.7-.1.42.34.65.79Z"/><path fill="#dcdcdc" d="M307.7 66.01q.6.32 1.21.3.53-.02.99.24l19.54 11.34a.39.39 0 0 0 .58-.41l-.09-.49q.6-.1.16 1.21l-.34 26.34-21.06-36.26-.99-2.27Z"/><path fill="#949494" d="m352.94 65.56-12.31 21.36q-4.78 9.26-10.88 17.62l.34-26.34 22.85-12.64Z"/><path fill="#820000" d="m128.35 67.12 19.41 25.96 2.68 3.57q.37.49.06 1.03l-22.81 39.25q-.29.5-.58-.01l-13.84-23.99-8.28-14.72q11.44 5.31 21.44 12.22a.54.54 0 0 0 .85-.45q-.14-20.71.13-41.63c.01-.64.38-1.04.94-1.23Z"/><path fill="#eceded" d="m370.28 104.79-.01 44.66q.06.52-.19.56-.65.18-1.09-.71-.22-.44-.65-.69L347.4 136.7q.5 1.24-.25-.22-.19-.37.06-.7l23.07-30.99Z"/><path fill="#b8b9b9" d="M370.28 104.79q11.37 15.23 22.42 30.01.24.33.44 1.7l-22.87 12.95.01-44.66Z"/><path fill="#0188ce" d="m331.09 114.59 4.62 2.82a1.69 1.69 0 0 1-.03 2.9l-4.61 2.73a1.69 1.69 0 0 1-1.75-.02l-4.46-2.76a1.69 1.69 0 0 1-.01-2.87l4.46-2.79a1.69 1.69 0 0 1 1.78-.01Z"/><path fill="#949494" d="m393.14 136.5-23.02 39.86-.04-26.35q.25-.04.19-.56l22.87-12.95Z"/><path fill="#dcdcdc" d="m347.4 136.7 20.94 11.91q.43.25.65.69.44.89 1.09.71l.04 26.35-22.72-39.66Z"/><path fill="#eceded" d="M168.78 140.64q.27 1.07-.05 1.7-.23.45-.23.96v42.04l-.05 16.65-.33 4.5q-.01.14-.14.18-.16.06-.33.11-.5.16-.5-.37.07-10.63.16-21.27 0-.54-.47-.82l-19.16-11.09q-.17-.1-.36-.12l-1.24-.13-.29-.29q-.35-.36-.07-.77 10.74-15.74 23.06-31.28Z"/><path fill="#b8b9b9" d="m168.78 140.64 23.1 31.23-23.38 13.47V143.3q0-.51.23-.96.32-.63.05-1.7Z"/><path fill="#0188ce" d="m132.82 152.34-4.57 2.79a1.74 1.74 0 0 1-1.86-.03l-4.33-2.81a1.74 1.74 0 0 1 .06-2.96l4.43-2.63a1.74 1.74 0 0 1 1.78 0l4.48 2.66a1.74 1.74 0 0 1 .01 2.98Z"/><path fill="#b8b9b9" d="M301.27 170.25c-.05.3-.05.63.16.89q4.28 5.43 7.74 10.64L286.04 195q.03-.54-.21-.75l-.02-43.96q7.79 9.97 14.74 19.66.26.35.72.3Z"/><path fill="#eceded" d="m285.81 150.29.02 43.96q-.54.8-1.35.24-8.5-5.71-20.9-11.71-.61.02-.57-.96c.04-.91 1.56-2.61 2.03-3.41l20.77-28.12Z"/><path fill="#6d439a" d="M15.51 169.31q-.23 1.07.3 1.38 116.17 67.3 232.27 134.77l-.07 7.8a2.06 1.98-32 0 1-.24.95l-.58 1.09-158.68-92.12-4.22-2.43-6.08-3.34-3.8-2.42-59.64-34.61q-.31-.18-.31-.54v-9.5q0-.34.29-.53l.76-.5Z"/><path fill="#2e0066" d="m483.76 169.87-.08 9.88q-.01.54-.48.81l-58.19 33.48-8.8 5.05-2.57 1.65-2.44 1.38q-81.13 46.49-162.07 93.31c-.8.46-1.19.26-1.94-.13l.58-1.09a2.06 1.98-32 0 0 .24-.95l.07-7.8 235.68-135.59Z"/><path fill="#949494" d="m191.88 171.87-23.3 40.17-.13-10.05.05-16.65 23.38-13.47Z"/><path fill="#dcdcdc" d="m168.45 201.99.13 10.05-22.5-39.06 1.24.13q.19.02.36.12l19.16 11.09q.47.28.47.82-.09 10.64-.16 21.27 0 .53.5.37.17-.05.33-.11.13-.04.14-.18l.33-4.5Z"/><path fill="#949494" d="M309.17 181.78 301.21 196l-1.75 2.75-13.56 23.29.14-27.04 23.13-13.22Z"/><path fill="#dcdcdc" d="M285.83 194.25q.24.21.21.75l-.14 27.04-22.32-39.26q12.4 6 20.9 11.71.81.56 1.35-.24Z"/><path fill="#0188ce" d="m369.12 193.79-4.37-2.69a1.75 1.75 0 0 1 .03-3l4.44-2.61a1.75 1.75 0 0 1 1.76-.01l4.58 2.63a1.75 1.75 0 0 1 0 3.04l-4.65 2.66a1.75 1.75 0 0 1-1.79-.02Z"/><path fill="#dcdcdc" d="m301.21 196 .24 1.87q.07.5-.3.86-.65.64-1.69.02l1.75-2.75Z"/><path fill="#7c8182" fill-opacity=".569" d="m425.01 214.04-.47.93a.35.35 0 0 0 .41.5c.88-.25 1.43-.44 2.26.09q2.44 1.52 4.94 3.65-3.57-2.6-6.61-1.86-.55.13-.02.34.49.19.42.55.06 1.21 1.66 1.5a.13.13 0 0 1-.03.25q-.98-.07-1.83-.63a.12.07 7.6 0 0-.18.08l.26.26q.41.41-.13.2l-1.04-.39a.56.56 0 0 0-.45 1.02q4.56 2.2 9.18 4.61c1.13.59 1.67 1.8 3.45 2.05q.48.07.86.39c3.01 2.46 6.75 3.57 9.43 6.31q.32.33.78.42 3.81.73 6.7 3.28.4.35.93.43c2.63.39 4.36 2.4 6.31 3.2q3.09 1.27 6.25 2.69l.93 1.13q.47.21.73.64a.25.25 0 0 1-.36.34q-.65-.44-1.36-.58-.36-.07-.06.14l6.02 4.3q-5.08-3.03-10.05-5.03-.75-.3-1.31-.92-.35-.38-.84-.54-3.77-1.15-6.6-3.95-.33-.33-.78-.44c-1.49-.36-2.32-2.08-3.79-2.01q-.53.02-.81-.43-1.33-2.14-4.06-2.23a.77.74-5 0 1-.7-.57q-.23-1.01-1.34-.99-.58.01-1.02-.38-1.48-1.33-3.45-1.65a1.68 1.68 0 0 1-.97-.54q-1.15-1.28-2.54-2.35a1.31 1.3 66 0 0-.7-.27q-2.21-.22-3.76-1.82-.36-.38-.88-.44-1.73-.22-3.32-.87-.06-.02-.05.04.04.18-.02.29-.1.22-.26.03-.83-1.02-2.25-1.04-.78-.01-.05.26 1.81.65 3.02 2.26.64.84-.26.28-4.59-2.92-2.17-.1l-8.77-5.46q-.44-.27-.32-.78l.27-1.14 8.8-5.05Z"/><path fill="#323535" fill-opacity=".239" d="m74.41 214.99 3.8 2.42q-3.53 1.13-5.28 3.03c-1.05 1.14-2.18 1.72-3.17 2.81-2.81.85-4.87 1.45-7.37 3.23q-4.11 2.92-8.63 5.13c-2.13 1.05-4.33 2.94-7.06 3.72a2.09 2.08 15.3 0 0-.86.49c-2.66 2.63-5.69 2.99-8.63 4.9q-2.27 1.47-4.87 2.35-.45.15-.78.48c-2.81 2.84-7.1 5.35-10.53 7.42q-.44.26-.69.71c-1.03 1.88-2.87 3.01-3.8 4.4q-5.65 8.47-1.54 18.17c.4.94 1.31 1.35 1.49 2.66q.06.51.36.92 3.44 4.81 9 6.85.5.18.81.63.58.87 1.56 1.12.49.13.9.4l7.86 5.21-2.25-.74q-.43-.14-.05.12 11.33 7.47 23.56 13.36 1.69.82 2.95 2.24.33.38.82.45c3.89.58 5.5 2.69 8.58 4.37q1.6.88 3.07 1.94 2.51 1.81 4.59 2.75 6.19 2.78 11.82 6.54 3.21 2.14 7.19 4.2 3.51 1.82 7.2 4.26 6.28 4.17 15.19 8.87c1.19.63 2.51.46 3.36 1.06q5.11 3.61 10.71 6.33c2.27 1.1 3.87 3.09 6.52 4.04a.08.08 0 0 0 .1-.08v-.27q0-.28.24-.13c5.04 3.04 9.54 6.48 14.82 9.23q3.8 1.98 7.52 4.23.07.05-.02.07-.16.05-.26.16-.21.21.05.37c3.17 2.01 6.62 3.33 9.81 5.29q2.09 1.29 3.77 1.99c10.23 4.24 18.96 10.94 28.92 16.24q1.06.56 3.67 2.71c3.6 2.96 9.12 5.29 12.51 6.65q.41.17.53.6c.34 1.21 12.37 5.93 14.29 6.94 7.49 3.92 15.22 5.2 23.65 4.1a2.07 2.04-66.3 0 0 .88-.35q1.7-1.23 3.78-1.53a2.1 2.03-65.9 0 0 .9-.36q6.45-4.61 13.6-7.99c2.03-.96 3.68-2.36 5.74-3.43 4.39-2.26 8.45-4.7 12.76-6.86.31-.15 1.18-1.02 1.42-1.31q.31-.39.76-.59 7.75-3.42 14.64-8.32c1.77-1.25 3.88-1.93 5.93-3.19q5.96-3.66 15.71-9.04c1.75-.97 3.29-2.73 5.2-3.66q11.61-5.67 16.01-8.64 4.69-3.18 9.65-5.94 11.13-6.21 22.28-12.42c1.56-.86 2.42-2.21 3.98-3.2q.45-.28.96-.12.71.23 1.07-.37a1.59 1.57 1.8 0 1 .67-.62q9.92-4.96 14.69-8.03c3.36-2.15 6.51-3.57 9.45-5.75q1.96-1.45 3.55-2.22 8.05-3.91 15.3-9.1 1.69-1.21 3.88-2.01c3-1.1 4.44-2.73 7.34-3.92q4.63-1.9 9.38-5.88c1.83-1.53 3.63-1.69 5.44-3.07q2.42-1.86 3.67-2.52 3.59-1.89 6.56-4.65c2.55-2.38 5.69-3.21 8.15-5.99a1.2 1.19 63.8 0 0 .3-.89q-.09-1.42 1.14-2.18.44-.28.68-.74c1.14-2.2 2.69-3.74 2.77-6.27.4-13.01-7.52-19.83-19.06-23.73l-.93-1.13q-1.01-.82-4.65-3.11c-3.97-2.5-10.23-4.69-13.2-8.04q-.32-.37-.8-.47c-3.91-.88-6.5-3.37-9.87-5.1q-2.48-1.26-4.56-3.16-.4-.37-.92-.51-3.82-1.1-6.01-4.29-.29-.42-.8-.44-.7-.03-1.34-.55.07-.36-.42-.55-.53-.21.02-.34 3.04-.74 6.61 1.86 1.74.19 3.09 1.6.34.36.83.42 2.1.27 3.41 1.86.31.38.8.39 1 .02 1.48.83.22.37.6.55 3.59 1.72 6.87 3.95 1.78 1.21 4 2.21c2.78 1.24 5 2.76 8.17 4.42 2.85 1.51 4.48 4.93 7.63 5.28q.39.05.69.3l.76.63q.38.31.86.35 2.16.17 3.23 2.02.25.43.74.47.99.08 1.53.91.3.47.83.66l2.49.88a1.18 1.16-89.6 0 1 .72.74c.34 1.05 1.4.85 2.22 1.26 6.53 3.22 7.45 7.56 9.37 13.89 2.42 8.01-1.46 17.46-9.11 21.17-1.42.69-2.41 2.08-3.62 2.8q-4.17 2.5-10.19 4.48-.67.22-.46.81.15.42-.23.65c-4.22 2.61-7.2 5.12-12.49 7.18-.67.27-.63.06-.69.86q-.03.41-.43.44-1.13.1-1.62 1.05-.2.38-.59.57c-1.66.76-7.16 4.21-8.5 4.16q-.33-.01-.6.2c-1.46 1.18-4.62 3.7-6.49 3.81q-.4.02-.73.26c-2.99 2.23-6.46 3.66-9.33 5.71q-5.95 4.26-10.39 6.05-1.9.78-2.6 1.37-.37.32-.82.52c-2.97 1.36-5.43 3.78-8.03 5.13-4.59 2.38-8.84 5.29-13.4 7.67q-2.63 1.36-5.05 2.98c-2.76 1.85-5.54 3.56-8.7 4.61-1.44.48-2.08 1.43-3.31 2.05-2.64 1.33-4.61 3.23-7.28 4.47q-4.53 2.1-8.43 5.3-.35.29-1.6.35a1.15 1.15 0 0 0-.83.43q-.87 1.08-2.2 1.12-.46.01-.83.28-.84.62-1.7 1.24a3.63 3.53-72.4 0 1-.86.46q-1.12.41-1.86 1.46-.31.45-.86.49c-2.11.17-3.16 1.67-4.44 2.44q-2.7 1.61-5.32 3.37-.42.29-.93.22c-1.26-.15-6.1 3.52-7.38 4.38-4.63 3.08-10.34 5.45-14.78 8.69q-3.09 2.26-5.82 3.13-.48.16-.81.55-1.17 1.37-2.95 1.63a1.25 1.23 15.2 0 0-.77.43q-.42.48-.91.84-.22.17-.46.3l-13.87 7.69q-.42.24-.9.32-1 .18-1.44 1.11-.2.41-.63.55c-2.97.98-5.91 4.54-8.85 4.64q-.49.02-.89.29c-3.09 2.1-6.66 5.15-10.15 6.38q-1.71.6-3.43 1.13-.95.29-3.03 1.56c-1.74 1.07-8.19 1.59-10.3 1.37-1.21-.13-2.28-1.18-3.78-.18q-.37.25-.82.22c-.53-.03-3.89-.19-4.04-.59q-.11-.27-.39-.29-1.56-.13-2.97-.84a1.64 1.49-27.8 0 0-.58-.15q-.66-.03-.87-.79a.5.5 0 0 0-.69-.32q-.92.4-1.32-.73-.17-.47-.58-.2-.17.11-.39.17-.13.04-.2-.08-.77-1.31-2.24-1.54-.5-.07-.63-.56-.25-.95-1.59-.83-.36.04-.57-.26-.5-.73-1.28-.34-.45.22-.6-.26-.36-1.21-1.46-1.01-.5.09-.76-.35-1.2-2.04-3.61-1.97a1.27 1.27 0 0 1-.91-.36q-.78-.77-1.23-1.79-.2-.48-.7-.63l-4.73-1.43q-.4-.12-.61-.48-.84-1.44-2.27-2.37a.84.83 42.9 0 0-.97.03q-.47.35-.9.08-.52-.32-.65-.6-.56-1.24-1.85-1.31-.5-.02-.8-.42-1.57-2.06-4.25-2.56a1.23 1.18 77.7 0 1-.8-.54q-1.03-1.63-3.02-1.66-.49-.01-.88-.33-4.9-4.06-10.9-6.02-.5-.16-.81-.58-1.44-1.92-3.81-2.49-.29-.07-.59-.02-.51.09-.76-.64-.21-.61-.86-.62-1.34-.01-1.93-1.31a1.15 1.14 84.6 0 0-.78-.65c-2.46-.61-3.82-2.36-5.72-3.33q-3.23-1.65-6.22-3.81a1.19 1.16-32.6 0 0-.91-.19c-2.28.47-2.86-2.07-3.61-1.78q-.45.18-.77-.18-1.75-2-4.49-2.75-.51-.14-.83-.58-1.14-1.58-3.22-1.42-.49.04-.72-.39-.84-1.51-2.38-1.73-.27-.03-.46-.22l-.35-.35q-.4-.41-.97-.44-2.41-.17-3.65-2-.28-.41-.72-.66l-10.33-5.8a3.92 3.78-6.8 0 1-.83-.63q-.67-.68-1.61-.95-.52-.14-.89-.52-1.25-1.29-3.06-1.36-.47-.02-.75-.41-1.38-1.94-3.74-2.26-.48-.07-.83-.39-.72-.66-1.39-1.35-.36-.38-.87-.31-.62.09-1.14-.6-.32-.41-.83-.56-1.62-.46-2.22-.97c-2.95-2.48-6.15-3.47-9.32-5.63-2.14-1.46-4.79-2.26-6.86-4.1q-.36-.32-.82-.44c-3.02-.83-4.07-3.1-7.19-3.72q-.45-.09-.65-.49-.47-.97-1.48-1.1-.48-.07-.83-.4-1.77-1.65-4.19-2.34-.51-.14-.8-.58-.31-.47-.77-.19-.51.31-.82-.2-1.47-2.41-4.34-2.75-.54-.07-.8-.54-.49-.86-1.45-.9-.51-.03-.85-.4l-.69-.75q-.38-.41-.91-.58c-3.26-1.02-5.29-3.38-8.92-4.88q-.93-.39-1.72-1.21c-1.58-1.63-3.69-1.65-5.44-3.14-1.32-1.12-2.95-1.48-4.02-2.17q-4.5-2.9-9.3-5.24-.34-.17-.71-.05l-.43.15q-.12.04-.2-.06l-1.03-1.33q-.24-.3-.62-.24c-1.91.35-1.27-2.29-2.93-1.84q-.46.12-.73-.26c-1.62-2.33-5.47-2.7-7.63-4.77q-2.09-2-4.99-2.21-.19-.01-.33-.13l-4.75-3.72a.23.22-67.5 0 0-.36.15q-.04.33-.31.37a.28.28 0 0 1-.24-.08l-2.72-2.72q-.37-.37-.4-.9-.09-1.56-1.82-2.32a.47.47 0 0 1-.25-.6q.35-.91-.63-1.43-.43-.23-.32-.7.17-.74-.5-1.26a1.1 1.1 0 0 1-.44-.88c.04-5.38-1.27-10.6.75-15.68q.17-.44.49-.78.97-1.06 2.06-3.47 1.57-3.46 6.91-6.62 27.74-16.37 56.02-32.32Z"/><path fill="#a3a6a8" fill-opacity=".745" d="m78.21 217.41 6.08 3.34.33.77q.22.51-.16.91-.54.56-.89.67-2.39-.19-4 1.28-.3.27-.69.34l-3.71.68q-.38.07-.54.41c-1.58 3.37-6.91 4.82-10.36 6.97a1.38 1.36-56.4 0 1-.95.2q-1.11-.16-1.73.84a1.55 1.55 0 0 1-.75.63c-4.74 1.92-9.3 5.97-12.64 7.77q-.95.52-2.62 2.22a1.37 1.34 19.8 0 1-.85.39c-2.53.2-8.2 4.7-9.77 6.19q-.39.36-.89.51-2.78.85-4.74 3.05-.3.34-.75.44-1.01.22-1.12 1.22-.06.52-.45.87-7.06 6.46-3.1 15.48c2.02 4.61 4.74 5.78 8.49 8.52q8.56 6.23 18.19 10.7a1.69 1.64-2.1 0 1 .73.66q.44.75.77.94c13.75 7.8 27.26 16.02 41.15 23.6q.4.22.48.67c.01.08 19.36 11.03 21.27 12.14q.04.03 7.42 4.5c3.14 1.91 6.71 3.45 9.71 5.53 1.7 1.18 3.87.71 5.81 2.19 2.32 1.77 5.51 3.58 8.06 5.01 17.79 10 35.35 20.4 53.15 30.41 8.69 4.89 19.11 11.42 28.92 16.72q.43.23.62.68c.23.55.44.85 1 1.12 6.26 3.04 14.1 6.27 21.13 6.29 3.38.01 7.17.4 9.48-.9 2.79-1.58 6.05-1.64 8.59-3.21q5.77-3.55 10.06-5.22c3.48-1.35 5.39-3.8 8.15-5.21l4.16-2.12a.21.14-56.7 0 0 0-.36q-.09.03-.18.09-1.19.8-.26-.27 2.08-2.37 5.15-3.23.62-.18.13.24l-1.31 1.13q-.27.23.08.3c.13.03 3.61-2.15 4.16-2.39 3.82-1.71 7.11-4.73 9.75-6.11q3.09-1.62 5.72-3.82c.85-.71 6.63-3.96 7.72-4.03q.49-.03.9-.3c2.97-1.95 6.03-3.78 8.88-5.91 2.27-1.69 5.57-2.42 7.34-3.4q7.43-4.14 13.11-7.86c1.87-1.23 3.86-1.46 5.5-2.65q6.63-4.81 11.02-6.6c6.03-2.46 11.08-7.61 17.85-10.77q1.6-.75 5.05-2.88c2.96-1.82 6.05-3.12 9.53-5.56 3.19-2.23 6.79-3.71 10.06-6.75q1.62-1.5 4.28-2.28a.25.25 0 0 1 .2.46q-.78.45-1.46 1.03-.37.32.06.08 3.02-1.61 5.94-3.37c.87-.53 1.62-.25 2.47-1.12 2.1-2.13 3.74-1.69 5.83-3.22q1.02-.75 2.07-1.49c1.82-1.29 3.87-1.71 5.73-3.17q1.86-1.45 3.3-2.17 4.33-2.14 7.95-5.41.35-.31.81-.32c2.92-.07 5.2-2.71 8.13-3.72q2.75-.95 4.67-3.13.32-.36.78-.51c1.98-.66 3.1-2.2 4.29-3.11 1.66-1.26 2.84-1.99 4.38-3.65q1.67-1.8 3.95-3.02a1.02 1 84.7 0 0 .51-.63q.47-1.66 1.74-2.72.42-.35.53-.89 2.44-11.79-7.24-18.25c-.89-.59-1.88-1.78-3.16-2.16q-.44-.13-.75-.47-.85-.93-2.04-1.29-.48-.15-.88-.44-5.18-3.82-11.05-6.44a.53.46 36.7 0 1-.18-.83q.05-.04.39.09.39.16.08-.13l-4.15-3.84a.25.19 74.4 0 1 .16-.41q1.22.76 2.63 1.15a.18.18 0 0 0 .12-.33q-1.35-.6-2.43-1.54-1.33-1.15-2.33-1.66-5.63-2.83-11.17-5.9-.27-.15-.17.15l.14.43q.15.42-.29.52-1.42.32-1.97-.82a.12.12 0 0 0-.22 0q-.07.17-.09.33-.05.44-.45.23l-7.53-4.04q-2.42-2.82 2.17.1.9.56.26-.28-1.21-1.61-3.02-2.26-.73-.27.05-.26 1.42.02 2.25 1.04.16.19.26-.03.06-.11.02-.29-.01-.06.05-.04 1.59.65 3.32.87.52.06.88.44 1.55 1.6 3.76 1.82a1.31 1.3 66 0 1 .7.27q1.39 1.07 2.54 2.35a1.68 1.68 0 0 0 .97.54q1.97.32 3.45 1.65.44.39 1.02.38 1.11-.02 1.34.99a.77.74-5 0 0 .7.57q2.73.09 4.06 2.23.28.45.81.43c1.47-.07 2.3 1.65 3.79 2.01q.45.11.78.44 2.83 2.8 6.6 3.95.49.16.84.54.56.62 1.31.92 4.97 2 10.05 5.03c6.38 4.28 11.33 9.88 10.56 18.06q-.29 3.13-2.48 6.09-3.39 4.6-7.86 8.21c-.81.65-1.45 1.86-2.36 2.47-3.5 2.33-5.79 4.77-9.87 6.39q-.48.19-.82.59-1.32 1.57-3.3 1.31-.5-.06-.89.26c-2.13 1.74-4.52 2.54-6.68 4.31q-3.14 2.57-7.25 3.43.8-.86 2.03-1.2a.19.18 28.7 0 0-.12-.35c-2.01.42-3.5.52-5.35 1.55q-5.08 2.82-10.01 5.91a.18.18 0 0 0 .08.33q.23.02.47-.01.59-.06.09.26c-2.74 1.69-5.22 3.29-8.27 4.81-4.27 2.13-7.84 4.83-12.41 6.82q-5.3 2.3-9.39 6.53-.54.56-2.68 1.2-.64.19-.17-.28l.27-.28q.35-.34-.14-.29-1.88.18-3.01 1.6-.31.39-.74.61l-4.27 2.22q-.39.2 0 .41c.02.01 3.53-1.68 4.03-1.77q.8-.16.11.27-1.63 1.01-3.35 1.82c-1.03.49-1.42 1.33-2.61 1.69q-1.68.5-2.07.72-5.98 3.45-12.05 6.73c-2.03 1.1-4.4 3.6-7.75 4.11q-.5.07-.87.41c-2.3 2.05-5.68 2.87-8.3 4.68-2.19 1.53-5.23 2.43-7.19 5.03q-.29.39-.78.43l-1.41.11q-.49.04-.8.4-4.43 5.12-10.67 7.74-.41.17-.68.53c-.34.46-.47.64-1.03.9q-6.02 2.84-11.94 5.95c-1.61.84-2.81 2.4-4.91 2.94q-.5.13-.74.58c-.77 1.41-2.3 1.19-3.3 1.77-1.58.91-2.24 2.11-3.66 2.92q-10.87 6.14-21.57 12.64-1.04.63-.17-.22 1.48-1.47 3.55-2.05a.15.15 0 0 0-.06-.29q-2 .21-3.32 1.7a1.96 1.94 11.7 0 1-.82.53c-3.19 1.03-5.18 3.11-8.13 4.71-4.04 2.18-7.18 4.31-13.17 6.74-8.59 3.5-15.21 4.61-23.76 1.84q-1.73-.56-4.52-2.02c-4.09-2.15-7.64-2.61-10.87-5.61q-.36-.33-.84-.46-3.93-1.09-7.31-3.25c-7.54-4.81-15.39-9.11-23.02-13.76-1.65-1-3.27-2.47-5.71-3.53q-5.35-2.33-12.19-7.03-4.58-3.15-22.15-12.26c-2.74-1.42-6.27-3.61-9.62-5.16q-4.51-2.09-7.23-3.74-4.72-2.86-9.57-5.54c-16.08-8.88-31.72-18.51-47.69-27.58-3.33-1.89-6.25-3.16-8.94-5.01q-1.45-1-3.01-1.81c-4.62-2.4-8.82-5.31-13.44-7.41-2.75-1.24-5.77-3.75-7.73-4.84q-9.8-5.5-19-11.95c-2.92-2.05-8.35-6.79-9.33-9.25q-4.59-11.43 3.91-19.51a2.41 2.33-12.3 0 0 .59-.89q.34-.89 1.29-1.02a1.26 1.25 12.8 0 0 .86-.54l.72-1.09q.33-.49.84-.78 3.78-2.1 6.91-5.11.38-.37.9-.45c2.95-.48 3.74-1.94 5.94-2.98q2.57-1.2 3.15-1.57 6.04-3.79 12.29-7.25c2.67-1.47 5.35-3.87 8.51-5.38q4.11-1.96 8.16-4.01.44-.23.73-.63.86-1.17 2.14-1.94a.21.16-64.1 0 0-.07-.37q-2.06.93-3.73 2.56-.39.39-.95.45-1.5.16-2.65 1.24a.28.22-11 0 1-.44-.23q.12-.18.32-.17a.31.26-32.1 0 0 .18-.54q-.25-.05-.65.08l.98-.81c.99-1.09 2.12-1.67 3.17-2.81q1.75-1.9 5.28-3.03Zm-8.01 5.61.24.49a.15.15 0 0 0 .19.07l.19-.08a10.49.4-25.3 0 0 9.31-4.85l-.02-.03a10.49.4-25.3 0 0-9.65 4.12l-.18.08a.15.15 0 0 0-.08.2Zm409.89 33.15q-.39-.74-1.07-1.26a.34.34 0 0 0-.53.39q.56 1.48 1.81 2.42a1.54 1.51-82.8 0 1 .51.67l.62 1.55a.27.26-57.1 0 0 .51-.11q-.08-1.88-1.36-3.02-.31-.28-.49-.64Z"/><path fill="#626766" fill-opacity=".459" d="M425.94 218.24q.64.52 1.34.55.51.02.8.44 2.19 3.19 6.01 4.29.52.14.92.51 2.08 1.9 4.56 3.16c3.37 1.73 5.96 4.22 9.87 5.1q.48.1.8.47c2.97 3.35 9.23 5.54 13.2 8.04q3.64 2.29 4.65 3.11-3.16-1.42-6.25-2.69c-1.95-.8-3.68-2.81-6.31-3.2q-.53-.08-.93-.43-2.89-2.55-6.7-3.28-.46-.09-.78-.42c-2.68-2.74-6.42-3.85-9.43-6.31q-.38-.32-.86-.39c-1.78-.25-2.32-1.46-3.45-2.05q-4.62-2.41-9.18-4.61a.56.56 0 0 1 .45-1.02l1.04.39q.54.21.13-.2l-.26-.26a.12.07 7.6 0 1 .18-.08q.85.56 1.83.63a.13.13 0 0 0 .03-.25q-1.6-.29-1.66-1.5Z"/><path fill="#7c8182" fill-opacity=".569" d="M70.2 223.02a.15.15 0 0 1 .08-.2l.18-.08a10.49.4-25.3 0 1 9.65-4.12l.02.03a10.49.4-25.3 0 1-9.31 4.85l-.19.08a.15.15 0 0 1-.19-.07l-.24-.49Z"/><path fill="#b2b7b8" fill-opacity=".831" d="m416.21 219.09-.27 1.14q-.12.51.32.78l8.77 5.46 7.53 4.04q.4.21.45-.23.02-.16.09-.33a.12.12 0 0 1 .22 0q.55 1.14 1.97.82.44-.1.29-.52l-.14-.43q-.1-.3.17-.15 5.54 3.07 11.17 5.9 1 .51 2.33 1.66 1.08.94 2.43 1.54a.18.18 0 0 1-.12.33q-1.41-.39-2.63-1.15a.25.19 74.4 0 0-.16.41l4.15 3.84q.31.29-.08.13-.34-.13-.39-.09a.53.46 36.7 0 0 .18.83q5.87 2.62 11.05 6.44.4.29.88.44 1.19.36 2.04 1.29.31.34.75.47c1.28.38 2.27 1.57 3.16 2.16q9.68 6.46 7.24 18.25-.11.54-.53.89-1.27 1.06-1.74 2.72a1.02 1 84.7 0 1-.51.63q-2.28 1.22-3.95 3.02c-1.54 1.66-2.72 2.39-4.38 3.65-1.19.91-2.31 2.45-4.29 3.11q-.46.15-.78.51-1.92 2.18-4.67 3.13c-2.93 1.01-5.21 3.65-8.13 3.72q-.46.01-.81.32-3.62 3.27-7.95 5.41-1.44.72-3.3 2.17c-1.86 1.46-3.91 1.88-5.73 3.17q-1.05.74-2.07 1.49c-2.09 1.53-3.73 1.09-5.83 3.22-.85.87-1.6.59-2.47 1.12q-2.92 1.76-5.94 3.37-.43.24-.06-.08.68-.58 1.46-1.03a.25.25 0 0 0-.2-.46q-2.66.78-4.28 2.28c-3.27 3.04-6.87 4.52-10.06 6.75-3.48 2.44-6.57 3.74-9.53 5.56q-3.45 2.13-5.05 2.88c-6.77 3.16-11.82 8.31-17.85 10.77q-4.39 1.79-11.02 6.6c-1.64 1.19-3.63 1.42-5.5 2.65q-5.68 3.72-13.11 7.86c-1.77.98-5.07 1.71-7.34 3.4-2.85 2.13-5.91 3.96-8.88 5.91q-.41.27-.9.3c-1.09.07-6.87 3.32-7.72 4.03q-2.63 2.2-5.72 3.82c-2.64 1.38-5.93 4.4-9.75 6.11-.55.24-4.03 2.42-4.16 2.39q-.35-.07-.08-.3l1.31-1.13q.49-.42-.13-.24-3.07.86-5.15 3.23-.93 1.07.26.27.09-.06.18-.09a.21.14-56.7 0 1 0 .36l-4.16 2.12c-2.76 1.41-4.67 3.86-8.15 5.21q-4.29 1.67-10.06 5.22c-2.54 1.57-5.8 1.63-8.59 3.21-2.31 1.3-6.1.91-9.48.9-7.03-.02-14.87-3.25-21.13-6.29-.56-.27-.77-.57-1-1.12q-.19-.45-.62-.68c-9.81-5.3-20.23-11.83-28.92-16.72-17.8-10.01-35.36-20.41-53.15-30.41-2.55-1.43-5.74-3.24-8.06-5.01-1.94-1.48-4.11-1.01-5.81-2.19-3-2.08-6.57-3.62-9.71-5.53q-7.38-4.47-7.42-4.5c-1.91-1.11-21.26-12.06-21.27-12.14q-.08-.45-.48-.67c-13.89-7.58-27.4-15.8-41.15-23.6q-.33-.19-.77-.94a1.69 1.64-2.1 0 0-.73-.66q-9.63-4.47-18.19-10.7c-3.75-2.74-6.47-3.91-8.49-8.52q-3.96-9.02 3.1-15.48.39-.35.45-.87.11-1 1.12-1.22.45-.1.75-.44 1.96-2.2 4.74-3.05.5-.15.89-.51c1.57-1.49 7.24-5.99 9.77-6.19a1.37 1.34 19.8 0 0 .85-.39q1.67-1.7 2.62-2.22c3.34-1.8 7.9-5.85 12.64-7.77a1.55 1.55 0 0 0 .75-.63q.62-1 1.73-.84a1.38 1.36-56.4 0 0 .95-.2c3.45-2.15 8.78-3.6 10.36-6.97q.16-.34.54-.41l3.71-.68q.39-.07.69-.34 1.61-1.47 4-1.28-2.06 1.11-2.29 2.04a1.16 1.13-9.7 0 1-.51.7q-1.37.85-3.78 1.88c-4.36 1.85-8.63 5.1-12.67 7.27q-4.05 2.17-8.58 5-6.76 4.21-17.25 10.05-2.34 1.31-3.98 3.46-.67.89.28.33l.91-.54a.16.15-78.9 0 1 .17.26q-1.49 1.19-3.13 2.15-.37.21-.14-.15.19-.3.42-.56a.28.22-6.1 0 0-.43-.26c-3.21 2.54-6.4 5.52-7.13 9.68-1.87 10.74 8.3 16.13 16.24 20.81 5.53 3.26 11.61 7.54 17.83 10.66q.36.18.44.58.08.33.5.29 4.63 2.46 9.1 5.18.82-.03.96.69.09.46.54.62c3.4 1.17 6.52 3.41 8.93 4.76q13.28 7.47 26.58 14.91.3.16.48.47.25.42.7.59c4.04 1.54 7.85 4.37 11.57 6.35 4.52 2.4 8.39 5.26 13.19 7.26q1.46.6 2.92 1.56c2.35 1.53 5.06 2.74 7.15 4.2 4.51 3.15 8.98 6.37 14.07 8.49 2.29.96 3.54 2.79 6.25 3.54a1.54 1.53 77.9 0 1 .78.51q.76.93 2.31 1.63 4.71 2.15 10.37 6.13.41.29.91.32 1.18.07 1.74 1.04.19.33.55.46c2.39.82 4.67 2.65 6.38 3.55q11.21 5.95 22 12.66 1.27.8 4.27 2.39c2.69 1.44 4.73 3.25 7.58 4.36 3.09 1.21 5.02 3.62 8.15 4.02a1.97 1.86 65.1 0 1 .9.36q6.09 4.49 14.23 6.84c16.56 4.78 27.24-5.05 40.48-12.1 1.47-.78 2.53-2.21 4.19-2.94 3.47-1.52 6.39-3.93 9.7-5.42q.81-.37 1.26-.86a2.56 2.48-80.4 0 1 .79-.58c8.15-3.74 15.56-8.33 23.33-12.72 3.16-1.78 5.28-3.98 8.9-5.92 5.33-2.87 11.27-5.02 15.56-8.57 2.17-1.78 4.11-2.49 5.74-3.59q8.01-5.39 11.71-6.71 2.82-1.01 4.2-2.64a1.78 1.74-79.3 0 1 .76-.53c3.33-1.22 6.25-3.71 8.76-5.06 5.28-2.86 10.29-6.25 15.73-8.77q2.4-1.12 4.64-2.53c6.96-4.42 14.1-8.5 21.24-12.63q.24-.14.95-.05a1.17 1.16-62 0 0 .9-.28c1.89-1.64 4.09-2.33 5.89-3.95q4.84-4.33 10.63-7.35 7.04-3.66 13.57-8.18.39-.27 1.45-.47.49-.1.89-.4 2.03-1.55 8.41-5.4 3.32-2.01 8.04-6.81c4.42-4.5 4.71-10.22 1.43-15.44-3.66-5.81-9.68-8.36-15.19-11.81-1.87-1.18-4.03-1.29-6-2.67q-.41-.28-.89-.35c-2.79-.4-4.92-2.35-6.82-3.29q-1.72-.84-3.38-1.83-13.93-8.31-28.06-16.66l1.75-2.39 2.57-1.65Zm24.07 19.44c-1.37-1.33-3.78-3.05-5.55-3.68q-.49-.17-.67-.66-.5-1.36-1.87-1.4a2 1.99-28.7 0 1-1-.29l-10.64-6.31q-.96-.57-.23.27 1.29 1.51 2.37 2.12 6.74 3.82 13.45 7.65c1.25.72 2.18 2.21 4.02 2.54q.43.07.12-.24Zm2.591-3.67a3.36.26 27.1 0 0-2.873-1.762 3.36.26 27.1 0 0-3.11-1.299 3.36.26 27.1 0 0 2.874 1.762 3.36.26 27.1 0 0 3.11 1.3Zm9.109 10.05q-1.66-1.15-3.58-1.82-1.04-.36-.16.3 1.55 1.13 3.62 1.75.79.24.12-.23Zm9.57 38.55q1.99-.46 3.37-1.88a1 .99-65.5 0 1 .77-.29q.86.07 1.31-.71.38-.67-.32-.34-2.56 1.23-5.19 3.09-.29.21.06.13Z"/><path fill="#7c8182" fill-opacity=".569" d="M443.04 301c-5.62 3.66-10.67 7.17-16.88 10.69-4.64 2.63-8.85 5.57-13.75 8.05q-5.31 2.69-10.26 6.04a.05.04-49.1 0 0 0 .08l.36.19q.42.22.05.5-3.29 2.47-6.03 3.21c-2.81.75-4.03 2.57-5.76 3.57q-7.66 4.45-15.64 8.29c-2.16 1.04-4.29 2.88-6.9 3.81q-.44.16-.63.58c-.87 1.94-3 2.22-4.18 3.01q-2.61 1.76-5.44 3.15-.44.21-.76.57-.5.56-1.15.98-.38.25-.83.34-1.29.26-1.88 1.35-.24.45-.73.56c-2.23.55-3.79 2.22-5.4 3.06q-6.87 3.58-15.64 8.59c-6.88 3.95-15.85 8.57-24.74 13.95q-2.48 1.5-6.28 3.27-3.77 1.76-11.62 7.1-2.19 1.49-8.97 4.61-.46.22-.66.68c-.78 1.84-3.75 2.41-5.34 3.51-2.78 1.93-5.59 2.76-8.71 4.49-14.84 8.25-34.79-1.59-46.57-10.86-1.59-1.25-3.48-1.74-5.07-2.94q-2.28-1.71-3.62-2.31-6.8-3-13.19-6.79c-2.85-1.69-6.26-3.2-9.27-5.11q-5.68-3.59-6.71-4.18c-10.09-5.71-19.88-11.99-30.3-17.09-3.33-1.63-6.81-4.2-10.55-5.84q-.46-.2-.73-.62c-1.03-1.64-2.91-1.91-4.06-2.6q-22-13.39-38.5-22.36-9.52-5.17-16.51-9.51-3.66-2.28-8.14-4.57c-7.69-3.93-14.63-8.92-22.31-12.35-1.27-.57-2.1-1.85-3.17-2.41q-8.32-4.39-16.1-9.63-6.05-4.07-7.38-5.24c-6.47-5.64-9.74-14.48-5.12-22.39.93-1.59 2.75-2.59 3.93-4.12q1.85-2.37 2.8-3.13 1.78-1.41 3.67-2.67c1.13-.75 1.89-1.97 3.19-2.6 3.83-1.85 7.57-4.38 11.17-6.67q.59-.37 1.67-.63c1.58-.37 2.15-1.22 3.11-1.78 3.89-2.29 7.65-4.78 11.67-6.82q1.32-.66 2.33-1.85.31-.35.75-.5l2.43-.84q.62-.21 1.14-.6l2.95-2.16q.4-.13.65-.08a.31.26-32.1 0 1-.18.54q-.2-.01-.32.17a.28.22-11 0 0 .44.23q1.15-1.08 2.65-1.24.56-.06.95-.45 1.67-1.63 3.73-2.56a.21.16-64.1 0 1 .07.37q-1.28.77-2.14 1.94-.29.4-.73.63-4.05 2.05-8.16 4.01c-3.16 1.51-5.84 3.91-8.51 5.38q-6.25 3.46-12.29 7.25-.58.37-3.15 1.57c-2.2 1.04-2.99 2.5-5.94 2.98q-.52.08-.9.45-3.13 3.01-6.91 5.11-.51.29-.84.78l-.72 1.09a1.26 1.25 12.8 0 1-.86.54q-.95.13-1.29 1.02a2.41 2.33-12.3 0 1-.59.89q-8.5 8.08-3.91 19.51c.98 2.46 6.41 7.2 9.33 9.25q9.2 6.45 19 11.95c1.96 1.09 4.98 3.6 7.73 4.84 4.62 2.1 8.82 5.01 13.44 7.41q1.56.81 3.01 1.81c2.69 1.85 5.61 3.12 8.94 5.01 15.97 9.07 31.61 18.7 47.69 27.58q4.85 2.68 9.57 5.54 2.72 1.65 7.23 3.74c3.35 1.55 6.88 3.74 9.62 5.16q17.57 9.11 22.15 12.26 6.84 4.7 12.19 7.03c2.44 1.06 4.06 2.53 5.71 3.53 7.63 4.65 15.48 8.95 23.02 13.76q3.38 2.16 7.31 3.25.48.13.84.46c3.23 3 6.78 3.46 10.87 5.61q2.79 1.46 4.52 2.02c8.55 2.77 15.17 1.66 23.76-1.84 5.99-2.43 9.13-4.56 13.17-6.74 2.95-1.6 4.94-3.68 8.13-4.71a1.96 1.94 11.7 0 0 .82-.53q1.32-1.49 3.32-1.7a.15.15 0 0 1 .06.29q-2.07.58-3.55 2.05-.87.85.17.22 10.7-6.5 21.57-12.64c1.42-.81 2.08-2.01 3.66-2.92 1-.58 2.53-.36 3.3-1.77q.24-.45.74-.58c2.1-.54 3.3-2.1 4.91-2.94q5.92-3.11 11.94-5.95c.56-.26.69-.44 1.03-.9q.27-.36.68-.53 6.24-2.62 10.67-7.74.31-.36.8-.4l1.41-.11q.49-.04.78-.43c1.96-2.6 5-3.5 7.19-5.03 2.62-1.81 6-2.63 8.3-4.68q.37-.34.87-.41c3.35-.51 5.72-3.01 7.75-4.11q6.07-3.28 12.05-6.73.39-.22 2.07-.72c1.19-.36 1.58-1.2 2.61-1.69q1.72-.81 3.35-1.82.69-.43-.11-.27c-.5.09-4.01 1.78-4.03 1.77q-.39-.21 0-.41l4.27-2.22q.43-.22.74-.61 1.13-1.42 3.01-1.6.49-.05.14.29l-.27.28q-.47.47.17.28 2.14-.64 2.68-1.2 4.09-4.23 9.39-6.53c4.57-1.99 8.14-4.69 12.41-6.82 3.05-1.52 5.53-3.12 8.27-4.81q.5-.32-.09-.26-.24.03-.47.01a.18.18 0 0 1-.08-.33q4.93-3.09 10.01-5.91c1.85-1.03 3.34-1.13 5.35-1.55a.19.18 28.7 0 1 .12.35q-1.23.34-2.03 1.2Z"/><path fill="#b8b9b9" d="m84.29 220.75 4.22 2.43q-.81-.07.03 1.55l-8.11 6.11a.79.77-63.1 0 1-.47.16h-.42q-.42 0-.67.35c-1.7 2.37-4.24 2.38-6.14 3.49q-10.31 6.02-20.68 11.93c-1.68.96-2.94 2.79-5.28 3.31q-.47.1-.85.39c-2.25 1.71-4.75 2.43-6.71 4.44q-3.1 3.18-6.59 5.94-.38.3-.48.77-.31 1.52-1.18 2.76-.31.43-.31.96c0 2.32.63 7.2 3.24 8q.35.1.35.46c0 .38 1.86 1.21 2.15 2.62a.7.68.1 0 0 .55.54q.93.18 1.2 1.03a.86.85 83.8 0 0 .74.6q1.27.12 1.93 1.32a1.71 1.69-89.5 0 0 .6.62l18.13 10.7a.93.93 0 0 1 .46.8v.45q0 .46.41.67l23.08 11.51q.43.21.63.64.96 2.02 3.28 1.7.53-.07.84.37.98 1.39 2.61 1.95.42.14.66.52c.98 1.52 3.31 1.5 4.86 3.15q.28.31.7.37 1.08.16 1.46 1.24.15.43.6.41 2.87-.13 4.55 2.14a.92.92 0 0 0 .93.36q.8-.17 1.11.5.24.52.79.68 3.42 1.01 6.41 2.9c4.77 3.02 8.14 4.9 12.45 7.18q.47.25.59.77.34 1.4 1.81 1.42a1.88 1.86 61.5 0 1 1.03.31q8.89 5.84 11.76 7.17 1.75.8 2.74 2.03.35.44.91.48 2.29.2 3.8 2.01.34.41.86.29c.42-.11 6.64 3.98 7.58 4.51 2.64 1.46 5.81 1.43 8.38 4.32q.33.36.79.52 3.89 1.29 7.36 3.52c.7.45.72 1.12 1.5 1.52q3.27 1.67 6.45 3.45c1.15.64 1.95 2 3.77 2.11q.48.03.88.31 2.08 1.41 4.1 2.92c1.11.83 2.29.83 3.39 1.97q.41.43.97.63l3.44 1.27q.52.19.66.73c.29 1.12 5.83 3.49 7.06 3.99a2.03 1.99 81.6 0 1 .82.62q1.3 1.66 3.42 1.62.47-.01.68.42c1.09 2.26 6.78 4.47 8.82 4.84q.49.09.83.46c2.05 2.23 4.82 2.97 7.14 4.59q1.75 1.23 3.73 1.97.45.17.79.51c1.16 1.18 2.97 1.37 4.12 1.95q12.41 6.35 26.23 2.36 1.86.03 3.5-1.61a1.54 1.51 18.2 0 1 .87-.43q1.08-.13 1.77-.88 1.39-1.24 3.16-1.53.47-.08.76-.46.98-1.3 2.61-1.45 3.09-1.03 4.84-3.02 2.4.15 3.7-2.04.26-.56 1.19-.99 2.47-.08 3.82-1.95l3.78-2.48q1.14-.04 2.24-.56a2.18 2.08-82.2 0 0 .75-.6q.59-.75 1.42-.86.43-.05.77-.3l2.03-1.49 6.26-3.75q3.35-.65 5.31-3.2.9-.13 1.33-.89l1.47-.2a2.1 2.03 22.2 0 0 .97-.39q1.81-1.36 3.87-2.31.5-.23.88-.62 1.45-1.5 3.57-1.93.46-.09.76-.46l1.06-1.31q.93.02 1.92-1.03 2.51-.31 3.09-1.85 4.52-1.3 7.56-4.21l9.26-5.7q2.58-.53 4.49-2.37 1.88-.02 2.92-1.51.29-.42.8-.45 1.61-.11 2.54-1.26-.22-.01.13-.35 2.24-.77 2.92-1.82.5-.95.84-.81 1.4-.22 2.31-1.12.31-.31.69-.52l3.16-1.66q1.27-1.6 3.06-2.09 3.88-1.16 7.17-3.93l6.64-3.75 11.06-5.86q.52-1.03 1.84-1.53-.05.5-.33.84-.4.48.21.35.53-.1.76-.63.22-.51.72-.26.87.46 1.12-.35.14-.45.55-.68 9.04-5.09 17.89-10.55c2.25-1.38 4.84-2.29 7.25-3.65q.4-.23.49-.68.23-1.12 1.33-.98a.96.95-66.1 0 0 .86-.34q1.82-2.18 4.54-2.66.51-.1.89-.46l2.6-2.49q.91-1.12 2.09-1.21-.22.09-.27.21-.14.34.26.11c1.54-.87 2.5-1.66 4.38-2.13.75-.18 3.51-1.12 3.57-2.07q.03-.48.49-.64 1.89-.61 3.37-1.93.38-.34.88-.39 2.25-.23 3.51-2.21c2.53-.78 4.75-2.4 6.39-3.37q.35-.21.56-.56.53-.91 1.54-1.18.39-.11.47-.5c.26-1.37 2.54-.78 2.79-2.83 4.23-5.05 6.12-8.38 3.28-14.56q-.04-.09-.11-.02l-.25.25q-.14.14-.19-.05-.44-1.75-1.97-2.75-.49-.32-.68-.88-.94-2.74-3.66-3.68-.48-.17-.76-.6c-1.64-2.58-8.21-3.78-11.19-5.38-1.31-.71-1.93-1.98-3.35-2.61-2.82-1.27-5.19-2.63-8.14-3.13a.35.34 8.9 0 1-.28-.38l.04-.39a.48.48 0 0 0-.52-.52q-2.18.2-3.22-1.46-.26-.41-.71-.58-2.76-1.04-4.48-3.42-.31-.43-.85-.43h-.72q-.58 0-.71-.57-.19-.76-.88-.72-.56.04-1.04-.26l-2.15-1.32q-.43-.27-.92-.41c-2.32-.66-4.02-2.39-5.96-3.45q-1.13-.61-2.76-1.64-1.85-1.17-1.71-3.5 14.13 8.35 28.06 16.66 1.66.99 3.38 1.83c1.9.94 4.03 2.89 6.82 3.29q.48.07.89.35c1.97 1.38 4.13 1.49 6 2.67 5.51 3.45 11.53 6 15.19 11.81 3.28 5.22 2.99 10.94-1.43 15.44q-4.72 4.8-8.04 6.81-6.38 3.85-8.41 5.4-.4.3-.89.4-1.06.2-1.45.47-6.53 4.52-13.57 8.18-5.79 3.02-10.63 7.35c-1.8 1.62-4 2.31-5.89 3.95a1.17 1.16-62 0 1-.9.28q-.71-.09-.95.05c-7.14 4.13-14.28 8.21-21.24 12.63q-2.24 1.41-4.64 2.53c-5.44 2.52-10.45 5.91-15.73 8.77-2.51 1.35-5.43 3.84-8.76 5.06a1.78 1.74-79.3 0 0-.76.53q-1.38 1.63-4.2 2.64-3.7 1.32-11.71 6.71c-1.63 1.1-3.57 1.81-5.74 3.59-4.29 3.55-10.23 5.7-15.56 8.57-3.62 1.94-5.74 4.14-8.9 5.92-7.77 4.39-15.18 8.98-23.33 12.72a2.56 2.48-80.4 0 0-.79.58q-.45.49-1.26.86c-3.31 1.49-6.23 3.9-9.7 5.42-1.66.73-2.72 2.16-4.19 2.94-13.24 7.05-23.92 16.88-40.48 12.1q-8.14-2.35-14.23-6.84a1.97 1.86 65.1 0 0-.9-.36c-3.13-.4-5.06-2.81-8.15-4.02-2.85-1.11-4.89-2.92-7.58-4.36q-3-1.59-4.27-2.39-10.79-6.71-22-12.66c-1.71-.9-3.99-2.73-6.38-3.55q-.36-.13-.55-.46-.56-.97-1.74-1.04-.5-.03-.91-.32-5.66-3.98-10.37-6.13-1.55-.7-2.31-1.63a1.54 1.53 77.9 0 0-.78-.51c-2.71-.75-3.96-2.58-6.25-3.54-5.09-2.12-9.56-5.34-14.07-8.49-2.09-1.46-4.8-2.67-7.15-4.2q-1.46-.96-2.92-1.56c-4.8-2-8.67-4.86-13.19-7.26-3.72-1.98-7.53-4.81-11.57-6.35q-.45-.17-.7-.59-.18-.31-.48-.47Q93.28 315.47 80 308c-2.41-1.35-5.53-3.59-8.93-4.76q-.45-.16-.54-.62-.14-.72-.96-.69-4.47-2.72-9.1-5.18-.42.04-.5-.29-.08-.4-.44-.58c-6.22-3.12-12.3-7.4-17.83-10.66-7.94-4.68-18.11-10.07-16.24-20.81.73-4.16 3.92-7.14 7.13-9.68a.28.22-6.1 0 1 .43.26q-.23.26-.42.56-.23.36.14.15 1.64-.96 3.13-2.15a.16.15-78.9 0 0-.17-.26l-.91.54q-.95.56-.28-.33 1.64-2.15 3.98-3.46 10.49-5.84 17.25-10.05 4.53-2.83 8.58-5c4.04-2.17 8.31-5.42 12.67-7.27q2.41-1.03 3.78-1.88a1.16 1.13-9.7 0 0 .51-.7q.23-.93 2.29-2.04.35-.11.89-.67.38-.4.16-.91l-.33-.77Z"/><path fill="#d5dade" d="m413.64 220.74-1.75 2.39q-.14 2.33 1.71 3.5 1.63 1.03 2.76 1.64c1.94 1.06 3.64 2.79 5.96 3.45q.49.14.92.41l2.15 1.32q.48.3 1.04.26.69-.04.88.72.13.57.71.57h.72q.54 0 .85.43 1.72 2.38 4.48 3.42.45.17.71.58 1.04 1.66 3.22 1.46a.48.48 0 0 1 .52.52l-.04.39a.35.34 8.9 0 0 .28.38c2.95.5 5.32 1.86 8.14 3.13 1.42.63 2.04 1.9 3.35 2.61 2.98 1.6 9.55 2.8 11.19 5.38q.28.43.76.6 2.72.94 3.66 3.68.19.56.68.88 1.53 1 1.97 2.75.05.19.19.05l.25-.25q.07-.07.11.02c2.84 6.18.95 9.51-3.28 14.56q-5.08 3.85-8.78 5.91-2.02 1.13-2.97 2.53-8.81 3.46-16.19 9.05-1.18.09-2.09 1.21c-2.68 1.54-5.39 2-7.78 4.04-3.1 2.64-7.19 4.15-10.51 6.35-6.68 4.42-13.9 7.66-20.59 12.15q-1.32.5-1.84 1.53-3.95.62-6.65 3.24-.35.33-.82.43-2.17.44-3.59 2.19l-6.64 3.75q-4.07 1.46-7.17 3.93-1.79.49-3.06 2.09-3.39.46-6.16 3.3-.34-.14-.84.81-1.88.01-2.92 1.82-.35.34-.13.35-3.9.52-6.26 3.22-2.96.57-4.49 2.37l-9.26 5.7q-4.07 1.1-7.56 4.21l-3.09 1.85q-.99 1.05-1.92 1.03l-12.58 7.22q-.43.76-1.33.89-3.15.93-5.31 3.2l-6.26 3.75-7.21 3.81L288 380l-3.82 1.95q-.93.43-1.19.99l-3.7 2.04q-2.61.77-4.84 3.02-1.63.15-2.61 1.45-.29.38-.76.46-1.77.29-3.16 1.53-3.28.82-6.14 2.92-13.82 3.99-26.23-2.36c-1.15-.58-2.96-.77-4.12-1.95q-.34-.34-.79-.51-1.98-.74-3.73-1.97c-2.32-1.62-5.09-2.36-7.14-4.59q-.34-.37-.83-.46c-2.04-.37-7.73-2.58-8.82-4.84q-.21-.43-.68-.42-2.12.04-3.42-1.62a2.03 1.99 81.6 0 0-.82-.62c-1.23-.5-6.77-2.87-7.06-3.99q-.14-.54-.66-.73l-3.44-1.27q-.56-.2-.97-.63c-1.1-1.14-2.28-1.14-3.39-1.97q-2.02-1.51-4.1-2.92-.4-.28-.88-.31c-1.82-.11-2.62-1.47-3.77-2.11q-3.18-1.78-6.45-3.45c-.78-.4-.8-1.07-1.5-1.52q-3.47-2.23-7.36-3.52-.46-.16-.79-.52c-2.57-2.89-5.74-2.86-8.38-4.32-.94-.53-7.16-4.62-7.58-4.51q-.52.12-.86-.29-1.51-1.81-3.8-2.01-.56-.04-.91-.48-.99-1.23-2.74-2.03-2.87-1.33-11.76-7.17a1.88 1.86 61.5 0 0-1.03-.31q-1.47-.02-1.81-1.42-.12-.52-.59-.77c-4.31-2.28-7.68-4.16-12.45-7.18q-2.99-1.89-6.41-2.9-.55-.16-.79-.68-.31-.67-1.11-.5a.92.92 0 0 1-.93-.36q-1.68-2.27-4.55-2.14-.45.02-.6-.41-.38-1.08-1.46-1.24-.42-.06-.7-.37c-1.55-1.65-3.88-1.63-4.86-3.15q-.24-.38-.66-.52-1.63-.56-2.61-1.95-.31-.44-.84-.37-2.32.32-3.28-1.7-.2-.43-.63-.64l-23.08-11.51q-.41-.21-.41-.67v-.45a.93.93 0 0 0-.46-.8l-18.13-10.7a1.71 1.69-89.5 0 1-.6-.62q-.66-1.2-1.93-1.32a.86.85 83.8 0 1-.74-.6q-.27-.85-1.2-1.03a.7.68.1 0 1-.55-.54c-.29-1.41-2.15-2.24-2.15-2.62q0-.36-.35-.46c-2.61-.8-3.24-5.68-3.24-8q0-.53.31-.96.87-1.24 1.18-2.76.1-.47.48-.77 3.49-2.76 6.59-5.94c1.96-2.01 4.46-2.73 6.71-4.44q.38-.29.85-.39c2.34-.52 3.6-2.35 5.28-3.31q10.37-5.91 20.68-11.93c1.9-1.11 4.44-1.12 6.14-3.49q.25-.35.67-.35h.42a.79.77-63.1 0 0 .47-.16l8.11-6.11q74.42 43.33 149.12 86.4c2.9 1.67 6.63 4.2 10.29 5.76q.53.22 1.03-.06 81.25-46.75 162.49-93.51.49-.28.19-.76-.15-.24-.46-.44l2.44-1.38Z"/><path fill="#0188ce" d="M174.33 224.4a1.43 1.43 0 0 1 .1 2.34q-2.58 1.99-5.66 3.14a1.26 1.23 49.2 0 1-1.05-.09l-4.13-2.41a2.04 2.04 0 0 1 .04-3.55l4.73-2.62a.98.97 46.3 0 1 1.01.03l4.96 3.16Z"/><path fill="#eceded" d="M411.2 222.12q.31.2.46.44.3.48-.19.76-81.24 46.76-162.49 93.51-.5.28-1.03.06c-3.66-1.56-7.39-4.09-10.29-5.76q-74.7-43.07-149.12-86.4-.84-1.62-.03-1.55l158.68 92.12c.75.39 1.14.59 1.94.13q80.94-46.82 162.07-93.31Z"/><path fill="#626766" fill-opacity=".459" d="m69.76 223.25-.98.81-2.95 2.16q-.52.39-1.14.6l-2.43.84q-.44.15-.75.5-1.01 1.19-2.33 1.85c-4.02 2.04-7.78 4.53-11.67 6.82-.96.56-1.53 1.41-3.11 1.78q-1.08.26-1.67.63c-3.6 2.29-7.34 4.82-11.17 6.67-1.3.63-2.06 1.85-3.19 2.6q-1.89 1.26-3.67 2.67-.95.76-2.8 3.13c-1.18 1.53-3 2.53-3.93 4.12-4.62 7.91-1.35 16.75 5.12 22.39q1.33 1.17 7.38 5.24 7.78 5.24 16.1 9.63c1.07.56 1.9 1.84 3.17 2.41 7.68 3.43 14.62 8.42 22.31 12.35q4.48 2.29 8.14 4.57 6.99 4.34 16.51 9.51 16.5 8.97 38.5 22.36c1.15.69 3.03.96 4.06 2.6q.27.42.73.62c3.74 1.64 7.22 4.21 10.55 5.84 10.42 5.1 20.21 11.38 30.3 17.09q1.03.59 6.71 4.18c3.01 1.91 6.42 3.42 9.27 5.11q6.39 3.79 13.19 6.79 1.34.6 3.62 2.31c1.59 1.2 3.48 1.69 5.07 2.94 11.78 9.27 31.73 19.11 46.57 10.86 3.12-1.73 5.93-2.56 8.71-4.49 1.59-1.1 4.56-1.67 5.34-3.51q.2-.46.66-.68 6.78-3.12 8.97-4.61 7.85-5.34 11.62-7.1 3.8-1.77 6.28-3.27c8.89-5.38 17.86-10 24.74-13.95q8.77-5.01 15.64-8.59c1.61-.84 3.17-2.51 5.4-3.06q.49-.11.73-.56.59-1.09 1.88-1.35.45-.09.83-.34.65-.42 1.15-.98.32-.36.76-.57 2.83-1.39 5.44-3.15c1.18-.79 3.31-1.07 4.18-3.01q.19-.42.63-.58c2.61-.93 4.74-2.77 6.9-3.81q7.98-3.84 15.64-8.29c1.73-1 2.95-2.82 5.76-3.57q2.74-.74 6.03-3.21.37-.28-.05-.5l-.36-.19a.05.04-49.1 0 1 0-.08q4.95-3.35 10.26-6.04c4.9-2.48 9.11-5.42 13.75-8.05 6.21-3.52 11.26-7.03 16.88-10.69q4.11-.86 7.25-3.43c2.16-1.77 4.55-2.57 6.68-4.31q.39-.32.89-.26 1.98.26 3.3-1.31.34-.4.82-.59c4.08-1.62 6.37-4.06 9.87-6.39.91-.61 1.55-1.82 2.36-2.47q4.47-3.61 7.86-8.21 2.19-2.96 2.48-6.09c.77-8.18-4.18-13.78-10.56-18.06l-6.02-4.3q-.3-.21.06-.14.71.14 1.36.58a.25.25 0 0 0 .36-.34q-.26-.43-.73-.64c11.54 3.9 19.46 10.72 19.06 23.73-.08 2.53-1.63 4.07-2.77 6.27q-.24.46-.68.74-1.23.76-1.14 2.18a1.2 1.19 63.8 0 1-.3.89c-2.46 2.78-5.6 3.61-8.15 5.99q-2.97 2.76-6.56 4.65-1.25.66-3.67 2.52c-1.81 1.38-3.61 1.54-5.44 3.07q-4.75 3.98-9.38 5.88c-2.9 1.19-4.34 2.82-7.34 3.92q-2.19.8-3.88 2.01-7.25 5.19-15.3 9.1-1.59.77-3.55 2.22c-2.94 2.18-6.09 3.6-9.45 5.75q-4.77 3.07-14.69 8.03a1.59 1.57 1.8 0 0-.67.62q-.36.6-1.07.37-.51-.16-.96.12c-1.56.99-2.42 2.34-3.98 3.2q-11.15 6.21-22.28 12.42-4.96 2.76-9.65 5.94-4.4 2.97-16.01 8.64c-1.91.93-3.45 2.69-5.2 3.66q-9.75 5.38-15.71 9.04c-2.05 1.26-4.16 1.94-5.93 3.19q-6.89 4.9-14.64 8.32-.45.2-.76.59c-.24.29-1.11 1.16-1.42 1.31-4.31 2.16-8.37 4.6-12.76 6.86-2.06 1.07-3.71 2.47-5.74 3.43q-7.15 3.38-13.6 7.99a2.1 2.03-65.9 0 1-.9.36q-2.08.3-3.78 1.53a2.07 2.04-66.3 0 1-.88.35c-8.43 1.1-16.16-.18-23.65-4.1-1.92-1.01-13.95-5.73-14.29-6.94q-.12-.43-.53-.6c-3.39-1.36-8.91-3.69-12.51-6.65q-2.61-2.15-3.67-2.71c-9.96-5.3-18.69-12-28.92-16.24q-1.68-.7-3.77-1.99c-3.19-1.96-6.64-3.28-9.81-5.29q-.26-.16-.05-.37.1-.11.26-.16.09-.02.02-.07-3.72-2.25-7.52-4.23c-5.28-2.75-9.78-6.19-14.82-9.23q-.24-.15-.24.13v.27a.08.08 0 0 1-.1.08c-2.65-.95-4.25-2.94-6.52-4.04q-5.6-2.72-10.71-6.33c-.85-.6-2.17-.43-3.36-1.06q-8.91-4.7-15.19-8.87-3.69-2.44-7.2-4.26-3.98-2.06-7.19-4.2-5.63-3.76-11.82-6.54-2.08-.94-4.59-2.75-1.47-1.06-3.07-1.94c-3.08-1.68-4.69-3.79-8.58-4.37q-.49-.07-.82-.45-1.26-1.42-2.95-2.24-12.23-5.89-23.56-13.36-.38-.26.05-.12l2.25.74q.47.95 1.02 1.21c5.19 2.46 9.75 6.2 15 8.28q.61.25.13-.2c-1.62-1.49-3.99-2.3-5.45-3.19q-5.26-3.21-10.7-6.1l-7.86-5.21q-.41-.27-.9-.4-.98-.25-1.56-1.12-.31-.45-.81-.63-5.56-2.04-9-6.85-.3-.41-.36-.92c-.18-1.31-1.09-1.72-1.49-2.66q-4.11-9.7 1.54-18.17c.93-1.39 2.77-2.52 3.8-4.4q.25-.45.69-.71c3.43-2.07 7.72-4.58 10.53-7.42q.33-.33.78-.48 2.6-.88 4.87-2.35c2.94-1.91 5.97-2.27 8.63-4.9a2.09 2.08 15.3 0 1 .86-.49c2.73-.78 4.93-2.67 7.06-3.72q4.52-2.21 8.63-5.13c2.5-1.78 4.56-2.38 7.37-3.23Z"/><path fill="#b8b9b9" d="M434.73 234.85c1.77.63 4.18 2.35 5.55 3.68q.31.31-.12.24c-1.84-.33-2.77-1.82-4.02-2.54q-6.71-3.83-13.45-7.65-1.08-.61-2.37-2.12-.73-.84.23-.27l10.64 6.31a2 1.99-28.7 0 0 1 .29q1.37.04 1.87 1.4.18.49.67.66Z"/><path fill="#0188ce" d="M279.97 234.98q2.42-2.59 5.88-3.6.55-.15 1.04.14l4.55 2.72a1.66 1.66 0 0 1-.01 2.86l-4.83 2.83a1.12 1.08-50.3 0 1-.89.1q-3.18-1.03-5.67-3.31a1.23 1.22 42.9 0 1-.07-1.74Z"/><ellipse fill="#a3a6a8" fill-opacity=".745" rx="3.36" ry=".26" transform="rotate(27.1 -264.143 1029.272)"/><path fill="#b8b9b9" d="M451.86 245.14q-2.07-.62-3.62-1.75-.88-.66.16-.3 1.92.67 3.58 1.82.67.47-.12.23Z"/><path fill="#7c8182" fill-opacity=".569" d="M480.58 256.81q1.28 1.14 1.36 3.02a.27.26-57.1 0 1-.51.11l-.62-1.55a1.54 1.51-82.8 0 0-.51-.67q-1.25-.94-1.81-2.42a.34.34 0 0 1 .53-.39q.68.52 1.07 1.26.18.36.49.64Z"/><path fill="#dcdcdc" d="M465.78 275.59c-.25 2.05-2.53 1.46-2.79 2.83q-.08.39-.47.5-1.01.27-1.54 1.18-.21.35-.56.56c-1.64.97-3.86 2.59-6.39 3.37q.95-1.4 2.97-2.53 3.7-2.06 8.78-5.91Z"/><path fill="#b8b9b9" d="M461.49 283.33q2.63-1.86 5.19-3.09.7-.33.32.34-.45.78-1.31.71a1 .99-65.5 0 0-.77.29q-1.38 1.42-3.37 1.88-.35.08-.06-.13Z"/><path fill="#dcdcdc" d="M454.03 284.03q-1.26 1.98-3.51 2.21-.5.05-.88.39-1.48 1.32-3.37 1.93-.46.16-.49.64c-.06.95-2.82 1.89-3.57 2.07-1.88.47-2.84 1.26-4.38 2.13q-.4.23-.26-.11.05-.12.27-.21 7.38-5.59 16.19-9.05Z"/><path fill="#323535" fill-opacity=".239" d="M36.98 292.04q5.44 2.89 10.7 6.1c1.46.89 3.83 1.7 5.45 3.19q.48.45-.13.2c-5.25-2.08-9.81-5.82-15-8.28q-.55-.26-1.02-1.21Z"/><path fill="#dcdcdc" d="m435.75 294.29-2.6 2.49q-.38.36-.89.46-2.72.48-4.54 2.66a.96.95-66.1 0 1-.86.34q-1.1-.14-1.33.98-.09.45-.49.68c-2.41 1.36-5 2.27-7.25 3.65q-8.85 5.46-17.89 10.55-.41.23-.55.68-.25.81-1.12.35-.5-.25-.72.26-.23.53-.76.63-.61.13-.21-.35.28-.34.33-.84c6.69-4.49 13.91-7.73 20.59-12.15 3.32-2.2 7.41-3.71 10.51-6.35 2.39-2.04 5.1-2.5 7.78-4.04ZM395.03 318.36l-11.06 5.86q1.42-1.75 3.59-2.19.47-.1.82-.43 2.7-2.62 6.65-3.24ZM377.33 327.97q-3.29 2.77-7.17 3.93 3.1-2.47 7.17-3.93ZM367.1 333.99l-3.16 1.66q-.38.21-.69.52-.91.9-2.31 1.12 2.77-2.84 6.16-3.3ZM360.1 338.1q-.68 1.05-2.92 1.82 1.04-1.81 2.92-1.82ZM357.05 340.27q-.93 1.15-2.54 1.26-.51.03-.8.45-1.04 1.49-2.92 1.51 2.36-2.7 6.26-3.22ZM350.79 343.49q-1.91 1.84-4.49 2.37 1.53-1.8 4.49-2.37ZM337.04 351.56q-3.04 2.91-7.56 4.21 3.49-3.11 7.56-4.21ZM329.48 355.77q-.58 1.54-3.09 1.85l3.09-1.85ZM324.47 358.65l-1.06 1.31q-.3.37-.76.46-2.12.43-3.57 1.93-.38.39-.88.62-2.06.95-3.87 2.31a2.1 2.03 22.2 0 1-.97.39l-1.47.2 12.58-7.22ZM310.56 366.76q-1.96 2.55-5.31 3.2 2.16-2.27 5.31-3.2ZM298.99 373.71l-2.03 1.49q-.34.25-.77.3-.83.11-1.42.86a2.18 2.08-82.2 0 1-.75.6q-1.1.52-2.24.56l7.21-3.81ZM288 380q-1.35 1.87-3.82 1.95L288 380ZM282.99 382.94q-1.3 2.19-3.7 2.04l3.7-2.04ZM279.29 384.98q-1.75 1.99-4.84 3.02 2.23-2.25 4.84-3.02ZM267.92 391.44q-.69.75-1.77.88a1.54 1.51 18.2 0 0-.87.43q-1.64 1.64-3.5 1.61 2.86-2.1 6.14-2.92Z"/></svg>